<?xml version="1.0" standalone="no"?>
<!DOCTYPE svg PUBLIC "-//W3C//DTD SVG 1.1//EN" "http://www.w3.org/Graphics/SVG/1.1/DTD/svg11.dtd" >
<svg xmlns="http://www.w3.org/2000/svg">
<metadata>Generated by IcoMoon</metadata>
<defs>
<font id="icomoon" horiz-adv-x="1024">
<font-face units-per-em="1024" ascent="960" descent="-64" />
<missing-glyph horiz-adv-x="1024" />
<glyph unicode="&#x20;" horiz-adv-x="512" d="" />
<glyph unicode="&#xe900;" glyph-name="star-2" d="M983.261 556.456c-3.261 10.027-11.926 17.334-22.355 18.847l-293.025 42.582-131.048 265.526c-4.664 9.452-14.291 15.436-24.831 15.436s-20.167-5.983-24.832-15.436l-131.055-265.526-293.020-42.582c-10.429-1.513-19.097-8.821-22.353-18.846-3.258-10.026-0.541-21.031 7.008-28.388l212.026-206.684-50.045-291.847c-1.783-10.39 2.489-20.882 11.016-27.081 4.824-3.505 10.538-5.285 16.279-5.285 4.409 0 8.832 1.048 12.883 3.174l262.092 137.799 262.081-137.791c9.333-4.907 20.638-4.088 29.16 2.103 8.531 6.199 12.808 16.699 11.020 27.089l-50.059 291.839 212.048 206.686c7.546 7.355 10.272 18.36 7.010 28.384z" />
<glyph unicode="&#xe901;" glyph-name="account" d="M512 933.026c-267.859 0-485.053-217.151-485.053-485.031s217.172-485.032 485.053-485.032c267.9 0 485.053 217.153 485.053 485.032 0 267.881-217.153 485.031-485.053 485.031zM512 787.997c42.55 0.003 83.359-16.898 113.448-46.983s46.996-70.892 46.996-113.441c0.005-42.55-16.896-83.358-46.98-113.447-30.089-30.089-70.894-46.995-113.444-46.998s-83.358 16.897-113.447 46.983c-30.089 30.085-46.995 70.891-46.998 113.441s16.897 83.358 46.983 113.447c30.085 30.089 70.891 46.995 113.441 46.998zM511.893 89.778c-84.997-0.097-167.222 30.224-231.809 85.477-7.516 6.413-13.553 14.385-17.695 23.353-4.141 8.973-6.29 18.734-6.296 28.613 0 89.848 72.717 161.76 162.586 161.76h186.682c89.891 0 162.331-71.912 162.331-161.76 0.005-9.874-2.134-19.639-6.273-28.607s-10.175-16.928-17.694-23.336c-64.587-55.274-146.825-85.606-231.833-85.499z" />
<glyph unicode="&#xe902;" glyph-name="accountline" d="M904.080 128.005c-58.022 100.303-147.432 172.227-251.772 206.321 51.61 30.725 91.711 77.546 114.142 133.266 22.426 55.721 25.946 117.264 10.011 175.178-15.931 57.915-50.434 108.997-98.211 145.403s-106.184 56.124-166.249 56.124c-60.064 0-118.47-19.717-166.245-56.124s-82.279-87.489-98.213-145.403c-15.933-57.914-12.415-119.457 10.013-175.178s62.529-102.541 114.141-133.266c-104.343-34.055-193.752-105.979-251.771-206.321-2.127-3.472-3.539-7.329-4.15-11.357-0.612-4.023-0.412-8.129 0.59-12.073s2.781-7.646 5.237-10.893c2.456-3.243 5.536-5.964 9.060-8.002 3.524-2.033 7.42-3.345 11.459-3.847 4.038-0.507 8.136-0.2 12.053 0.907 3.917 1.102 7.574 2.979 10.753 5.52s5.819 5.691 7.76 9.27c71.772 124.036 198.629 198.095 339.313 198.095 140.688 0 267.542-74.060 339.315-198.095 1.946-3.579 4.584-6.729 7.763-9.27s6.836-4.418 10.752-5.52c3.916-1.107 8.016-1.414 12.054-0.907 4.037 0.502 7.934 1.814 11.459 3.847 3.521 2.038 6.602 4.759 9.060 8.002 2.453 3.248 4.237 6.949 5.237 10.893s1.2 8.051 0.59 12.073c-0.614 4.028-2.024 7.885-4.15 11.357zM298.668 569.908c0 42.194 12.512 83.439 35.953 118.522s56.759 62.426 95.741 78.572c38.982 16.147 81.877 20.372 123.256 12.14 41.384-8.231 79.399-28.55 109.232-58.385 29.837-29.835 50.156-67.847 58.388-109.23s4.003-84.277-12.142-123.258c-16.145-38.982-43.491-72.301-78.575-95.741-35.079-23.44-76.327-35.952-118.521-35.952-56.559 0.059-110.787 22.552-150.781 62.547-39.995 39.999-62.49 94.224-62.551 150.785z" />
<glyph unicode="&#xe904;" glyph-name="account-line-3" d="M512 448c47.967 0 94.855 14.224 134.742 40.873 39.882 26.649 70.969 64.527 89.325 108.843s23.159 93.080 13.797 140.125c-9.356 47.046-32.455 90.26-66.371 124.178-33.921 33.918-77.134 57.016-124.178 66.374-47.046 9.358-95.81 4.555-140.126-13.801s-82.193-49.441-108.842-89.325c-26.649-39.883-40.873-86.773-40.873-134.74 0.064-64.302 25.637-125.953 71.105-171.421s107.118-71.041 171.421-71.105zM512 852.211c31.978 0 63.24-9.483 89.826-27.249 26.592-17.766 47.314-43.018 59.548-72.562 12.239-29.544 15.441-62.053 9.205-93.417-6.241-31.364-21.639-60.173-44.253-82.785-22.609-22.612-51.421-38.011-82.784-44.25s-63.873-3.036-93.417 9.201c-29.544 12.237-54.795 32.961-72.562 59.55s-27.249 57.848-27.249 89.827c0 42.881 17.035 84.006 47.356 114.328s71.447 47.356 114.328 47.356zM512 367.158c-96.45-0.108-188.919-38.47-257.12-106.668-68.201-68.204-106.562-160.671-106.67-257.121 0-10.72 4.259-21.003 11.839-28.58 7.58-7.583 17.862-11.841 28.582-11.841s21.002 4.258 28.582 11.841c7.58 7.578 11.839 17.861 11.839 28.58 0 75.043 29.81 147.009 82.873 200.073s125.031 82.874 200.074 82.874c75.043 0 147.009-29.809 200.073-82.874s82.874-125.030 82.874-200.073c0-10.72 4.258-21.003 11.841-28.58 7.578-7.583 17.861-11.841 28.58-11.841s21.003 4.258 28.58 11.841c7.583 7.578 11.841 17.861 11.841 28.58-0.108 96.45-38.47 188.917-106.668 257.121-68.204 68.198-160.671 106.561-257.121 106.668z" />
<glyph unicode="&#xe905;" glyph-name="arr-chart" d="M710.676 658.944l58.982-58.982-199.885-199.885-134.758 134.758c-15.974 15.974-41.78 15.974-57.755 0l-245.76-246.17c-15.974-15.974-15.974-41.779 0-57.754s41.779-15.974 57.754 0l216.678 217.088 134.76-134.758c15.974-15.974 41.779-15.974 57.754 0l228.966 228.557 58.982-58.982c12.698-12.698 34.816-3.686 34.816 14.336v176.128c0.41 11.469-8.602 20.48-20.070 20.48h-175.718c-18.432 0-27.443-22.118-14.746-34.816z" />
<glyph unicode="&#xe906;" glyph-name="arr-down1" d="M831.816 546.336l-298.669-298.665c-2.774-2.778-6.068-4.983-9.693-6.485s-7.512-2.273-11.437-2.273c-3.925 0-7.811 0.771-11.437 2.273s-6.92 3.707-9.694 6.485l-298.667 298.665c-5.604 5.604-8.752 13.205-8.752 21.131s3.148 15.527 8.752 21.131c5.604 5.605 13.206 8.752 21.131 8.752s15.527-3.148 21.131-8.752l277.536-277.573 277.535 277.573c2.778 2.775 6.069 4.976 9.694 6.478s7.516 2.275 11.435 2.275c3.925 0 7.817-0.773 11.441-2.275s6.915-3.703 9.694-6.478c2.772-2.775 4.977-6.069 6.479-9.695s2.273-7.511 2.273-11.436c0-3.924-0.771-7.81-2.273-11.436s-3.707-6.92-6.479-9.695z" />
<glyph unicode="&#xe907;" glyph-name="arr-left" d="M309.984 426.69l301.176-301.178c2.798-2.795 6.12-5.018 9.776-6.53 3.656-1.518 7.575-2.295 11.532-2.295 3.959 0 7.875 0.777 11.531 2.295 3.656 1.512 6.981 3.735 9.776 6.53 2.801 2.801 5.018 6.12 6.536 9.776 1.512 3.656 2.289 7.578 2.289 11.535s-0.777 7.873-2.289 11.529c-1.518 3.656-3.735 6.981-6.536 9.776l-279.905 279.869 279.905 279.868c5.65 5.651 8.824 13.316 8.824 21.308s-3.174 15.657-8.824 21.308c-5.65 5.651-13.318 8.826-21.307 8.826-7.993 0-15.657-3.174-21.308-8.826l-301.176-301.176c-2.8-2.797-5.022-6.119-6.537-9.775s-2.296-7.576-2.296-11.533c0-3.958 0.78-7.878 2.296-11.533s3.737-6.978 6.537-9.775z" />
<glyph unicode="&#xe908;" glyph-name="arr-right" d="M726.624 425.358l-319.997-320.001c-2.973-2.97-6.503-5.331-10.387-6.938-3.885-1.613-8.048-2.438-12.253-2.438s-8.368 0.826-12.253 2.438c-3.885 1.606-7.414 3.968-10.387 6.938-2.973 2.976-5.332 6.502-6.941 10.387s-2.437 8.051-2.437 12.256c0 4.205 0.828 8.365 2.437 12.25s3.967 7.418 6.941 10.387l297.399 297.361-297.399 297.36c-6.004 6.004-9.378 14.148-9.378 22.64s3.373 16.636 9.378 22.64c6.004 6.004 14.148 9.377 22.64 9.377s16.636-3.373 22.64-9.377l319.997-320c2.976-2.972 5.338-6.501 6.95-10.386 1.606-3.885 2.438-8.049 2.438-12.254s-0.832-8.37-2.438-12.254c-1.613-3.885-3.974-7.414-6.95-10.386z" />
<glyph unicode="&#xe909;" glyph-name="upload" d="M853.333 298.667v-170.667c0-11.776-4.736-22.4-12.501-30.165s-18.389-12.501-30.165-12.501h-597.333c-11.776 0-22.4 4.736-30.165 12.501s-12.501 18.389-12.501 30.165v170.667c0 23.552-19.115 42.667-42.667 42.667s-42.667-19.115-42.667-42.667v-170.667c0-35.328 14.379-67.413 37.504-90.496s55.168-37.504 90.496-37.504h597.333c35.328 0 67.413 14.379 90.496 37.504s37.504 55.168 37.504 90.496v170.667c0 23.552-19.115 42.667-42.667 42.667s-42.667-19.115-42.667-42.667zM469.333 707.67v-409.003c0-23.552 19.115-42.667 42.667-42.667s42.667 19.115 42.667 42.667v409.003l140.501-140.501c16.683-16.683 43.691-16.683 60.331 0s16.683 43.691 0 60.331l-213.333 213.333c-3.925 3.925-8.619 7.083-13.824 9.259-10.453 4.309-22.229 4.309-32.683 0-5.035-2.091-9.728-5.163-13.824-9.259l-213.333-213.333c-16.683-16.683-16.683-43.691 0-60.331s43.691-16.683 60.331 0z" />
<glyph unicode="&#xe90a;" glyph-name="arr-down" d="M866.086 542.127l-320.003-320.002c-4.46-4.474-9.758-8.026-15.592-10.445-5.835-2.426-12.090-3.674-18.408-3.674s-12.573 1.248-18.407 3.674c-5.835 2.419-11.133 5.971-15.593 10.445l-320 320.002c-9.018 9.018-14.083 21.247-14.083 34s5.066 24.982 14.083 34c9.018 9.018 21.247 14.083 34 14.083s24.982-5.066 34-14.083l286.040-286.040 286.040 286.079c9.018 9.018 21.248 14.084 34.003 14.084 12.749 0 24.979-5.066 33.997-14.084s14.086-21.247 14.086-34c0-12.752-5.069-24.982-14.086-34l-0.077-0.040z" />
<glyph unicode="&#xe90b;" glyph-name="arr-right-4" d="M886.641 425.344l-288-288c-6.006-6.006-14.147-9.38-22.641-9.38s-16.635 3.374-22.641 9.38c-6.006 6.001-9.375 14.147-9.375 22.641 0 8.489 3.369 16.635 9.375 22.636l233.4 233.364h-626.76c-8.487 0-16.626 3.369-22.627 9.37s-9.373 14.141-9.373 22.63c0 8.484 3.372 16.624 9.373 22.625s14.14 9.373 22.627 9.373h626.76l-233.4 233.36c-6.006 6.004-9.375 14.148-9.375 22.64s3.369 16.635 9.375 22.64c6.006 6.005 14.147 9.378 22.641 9.378s16.635-3.373 22.641-9.378l288-288c2.975-2.972 5.335-6.501 6.948-10.386 1.608-3.885 2.437-8.049 2.437-12.252 0-4.209-0.829-8.371-2.437-12.257-1.613-3.886-3.973-7.414-6.948-10.383z" />
<glyph unicode="&#xe90c;" glyph-name="arr-up" d="M838.324 347.658l-304.762 304.76c-2.833 2.834-6.193 5.081-9.894 6.615s-7.665 2.323-11.67 2.323c-4.005 0-7.971-0.789-11.671-2.323s-7.061-3.781-9.891-6.615l-304.762-304.76c-5.718-5.72-8.931-13.478-8.931-21.563 0-8.090 3.213-15.843 8.931-21.563s13.475-8.933 21.562-8.933c8.087 0 15.843 3.213 21.562 8.933l283.2 283.238 283.2-283.238c2.833-2.833 6.193-5.076 9.894-6.612 3.696-1.531 7.665-2.321 11.669-2.321s7.968 0.79 11.669 2.321c3.701 1.536 7.061 3.779 9.894 6.612 2.828 2.833 5.076 6.193 6.607 9.894 1.536 3.696 2.321 7.665 2.321 11.669s-0.785 7.968-2.321 11.669c-1.531 3.701-3.779 7.061-6.607 9.894z" />
<glyph unicode="&#xe90d;" glyph-name="blance" d="M694.002 596c-181.965 0-330.002-148.037-330.002-330.002 0-181.96 148.037-329.998 330.002-329.998 181.96 0 329.998 148.038 329.998 329.998 0 181.965-148.038 330.002-329.998 330.002zM694.002 296.001c49.627 0 90-40.374 90-90 0-39.061-25.158-72.048-60.002-84.475v-65.527h-60.002v65.527c-34.844 12.428-59.997 45.414-59.997 84.475h59.997c0-16.552 13.447-30.003 30.003-30.003 16.552 0 29.999 13.452 29.999 30.003s-13.447 29.999-29.999 29.999c-49.631 0-90 40.374-90 90 0 39.061 25.153 72.048 59.997 84.475v65.527h60.002v-65.527c34.844-12.428 60.002-45.414 60.002-84.475h-60.002c0 16.552-13.447 29.999-29.999 29.999-16.556 0-30.003-13.447-30.003-29.999s13.447-29.999 30.003-29.999zM334 596c185.038 0 329.999 79.072 329.999 180s-144.961 184-329.999 184c-185.040 0-334-83.072-334-184s148.96-180 334-180zM0 284.881v-48.882c0-100.929 148.96-180.001 334-180.001 10.496 0 20.666 0.968 31 1.471-23.327 36.655-40.324 76.963-50.28 119.254-133.81 3.691-249.996 44.809-314.72 108.158zM305.442 237.526c-0.688 9.439-1.442 18.865-1.442 28.472 0 31.274 4.098 61.542 11.086 90.708-133.976 3.631-250.304 44.772-315.086 108.176v-48.882c0-95.572 134.524-170.682 305.442-178.474zM334 416l0.092 0.005c19.65 46.96 48.274 89.633 84.266 125.631-27.094-3.424-55.094-5.636-84.358-5.636-142.434 0-266.148 42.474-334 108.882v-48.882c0-100.928 148.96-180 334-180z" />
<glyph unicode="&#xe90e;" glyph-name="briefcase" d="M794.947 771.368h-44.463c-9.383 45.619-34.202 86.608-70.284 116.060-36.077 29.452-81.203 45.565-127.779 45.624h-80.842c-46.573-0.059-91.702-16.172-127.781-45.624s-60.901-70.441-70.282-116.060h-44.463c-53.582-0.064-104.951-21.378-142.839-59.266s-59.202-89.257-59.266-142.839v-404.211c0.064-53.582 21.378-104.949 59.266-142.837s89.257-59.203 142.839-59.268h565.895c53.582 0.065 104.949 21.38 142.837 59.268s59.203 89.255 59.268 142.837v404.211c-0.065 53.582-21.38 104.951-59.268 142.839s-89.255 59.202-142.837 59.266zM471.579 852.211h80.842c24.991-0.103 49.341-7.926 69.713-22.397 20.378-14.471 35.781-34.883 44.113-58.445h-308.493c8.33 23.562 23.736 43.974 44.112 58.445s44.723 22.294 69.714 22.397zM229.053 690.526h565.895c32.159 0 63.003-12.776 85.747-35.517 22.738-22.741 35.517-53.585 35.517-85.746v-121.263h-808.421v121.263c0 32.161 12.776 63.005 35.517 85.746s53.585 35.517 85.746 35.517zM794.947 43.789h-565.895c-32.161 0-63.005 12.778-85.746 35.517-22.741 22.744-35.517 53.588-35.517 85.747v202.105h363.789v-40.421c0-10.72 4.259-21.003 11.839-28.58 7.58-7.583 17.862-11.841 28.582-11.841s21.002 4.258 28.582 11.841c7.58 7.578 11.839 17.861 11.839 28.58v40.421h363.789v-202.105c0-32.159-12.778-63.003-35.517-85.747-22.744-22.738-53.588-35.517-85.747-35.517z" />
<glyph unicode="&#xe90f;" glyph-name="browser" d="M170.667 772.275v-443.734h148.692l272.944 255.657c0.483 0.453 0.98 0.892 1.489 1.315 12.266 10.217 27.726 15.812 43.691 15.812 15.49 0 30.506-5.267 42.59-14.915l173.261-124.602v310.467h-682.667zM34.133 809.358c0 54.925 44.525 99.45 99.45 99.45h756.832c54.927 0 99.451-44.526 99.451-99.45v-517.9c0-54.928-44.524-99.452-99.451-99.452h-274.977l36.654-102.414h64.707c28.276 0 51.2-22.924 51.2-51.2s-22.924-51.2-51.2-51.2h-409.6c-28.277 0-51.2 22.924-51.2 51.2s22.923 51.2 51.2 51.2h64.709l36.654 102.414h-274.979c-54.925 0-99.45 44.524-99.45 99.452v517.9zM441.6 626.125c0-51.252-41.548-92.8-92.8-92.8s-92.8 41.548-92.8 92.8c0 51.252 41.548 92.8 92.8 92.8s92.8-41.548 92.8-92.8z" />
<glyph unicode="&#xe910;" glyph-name="browser-2" d="M794.947 892.632h-565.895c-53.582-0.064-104.951-21.378-142.839-59.266s-59.202-89.257-59.266-142.839v-485.053c0.064-53.582 21.378-104.949 59.266-142.837s89.257-59.203 142.839-59.268h565.895c53.582 0.065 104.949 21.38 142.837 59.268s59.203 89.255 59.268 142.837v485.053c-0.065 53.582-21.38 104.951-59.268 142.839s-89.255 59.202-142.837 59.266zM229.053 811.789h565.895c32.159 0 63.003-12.776 85.747-35.517 22.738-22.741 35.517-53.585 35.517-85.746v-40.421h-808.421v40.421c0 32.161 12.776 63.005 35.517 85.746s53.585 35.517 85.746 35.517zM794.947 84.211h-565.895c-32.161 0-63.005 12.778-85.746 35.517-22.741 22.744-35.517 53.588-35.517 85.747v363.789h808.421v-363.789c0-32.159-12.778-63.003-35.517-85.747-22.744-22.738-53.588-35.517-85.747-35.517zM794.947 407.579c0-10.72-4.258-21.003-11.841-28.58-7.578-7.583-17.861-11.841-28.58-11.841h-485.053c-10.72 0-21.002 4.258-28.582 11.841-7.58 7.578-11.839 17.861-11.839 28.58s4.259 21.002 11.839 28.582c7.58 7.58 17.862 11.839 28.582 11.839h485.053c10.72 0 21.003-4.259 28.58-11.839 7.583-7.58 11.841-17.862 11.841-28.582zM633.263 245.895c0-10.72-4.258-21.003-11.841-28.58-7.578-7.583-17.861-11.841-28.58-11.841h-323.368c-10.72 0-21.002 4.258-28.582 11.841-7.58 7.578-11.839 17.861-11.839 28.58s4.259 21.003 11.839 28.58c7.58 7.583 17.862 11.841 28.582 11.841h323.368c10.72 0 21.003-4.258 28.58-11.841 7.583-7.578 11.841-17.861 11.841-28.58zM148.211 730.947c0 7.995 2.371 15.809 6.812 22.457s10.754 11.828 18.14 14.887c7.386 3.060 15.513 3.86 23.354 2.3s15.043-5.409 20.696-11.062c5.653-5.653 9.503-12.856 11.062-20.696s0.759-15.968-2.3-23.354c-3.060-7.386-8.241-13.699-14.887-18.14s-14.462-6.812-22.457-6.812c-10.72 0-21.002 4.259-28.582 11.839s-11.839 17.862-11.839 28.582zM269.474 730.947c0 7.995 2.371 15.809 6.812 22.457s10.754 11.828 18.14 14.887c7.386 3.060 15.513 3.86 23.354 2.3s15.043-5.409 20.696-11.062c5.653-5.653 9.503-12.856 11.062-20.696s0.759-15.968-2.3-23.354c-3.060-7.386-8.241-13.699-14.887-18.14s-14.462-6.812-22.457-6.812c-10.72 0-21.002 4.259-28.582 11.839s-11.839 17.862-11.839 28.582zM390.737 730.947c0 7.995 2.371 15.809 6.812 22.457s10.754 11.828 18.14 14.887c7.386 3.060 15.513 3.86 23.354 2.3s15.043-5.409 20.696-11.062c5.653-5.653 9.503-12.856 11.062-20.696s0.759-15.968-2.3-23.354c-3.060-7.386-8.24-13.699-14.887-18.14s-14.462-6.812-22.457-6.812c-10.72 0-21.002 4.259-28.582 11.839s-11.839 17.862-11.839 28.582z" />
<glyph unicode="&#xe911;" glyph-name="calculator" d="M754.526-37.053h-485.053c-53.582 0.065-104.951 21.38-142.839 59.268s-59.202 89.255-59.266 142.837v565.895c0.064 53.582 21.378 104.951 59.266 142.839s89.257 59.202 142.839 59.266h485.053c53.582-0.064 104.949-21.378 142.837-59.266s59.203-89.257 59.268-142.839v-565.895c-0.065-53.582-21.38-104.949-59.268-142.837s-89.255-59.203-142.837-59.268zM269.474 852.211c-32.161 0-63.005-12.776-85.746-35.517s-35.517-53.585-35.517-85.746v-565.895c0-32.159 12.776-63.003 35.517-85.747 22.741-22.738 53.585-35.517 85.746-35.517h485.053c32.159 0 63.003 12.778 85.747 35.517 22.738 22.744 35.517 53.588 35.517 85.747v565.895c0 32.161-12.778 63.005-35.517 85.746-22.744 22.741-53.588 35.517-85.747 35.517h-485.053zM673.684 528.842h-323.368c-32.161 0-63.005 12.776-85.746 35.517s-35.517 53.585-35.517 85.746c0 32.161 12.776 63.005 35.517 85.746s53.585 35.517 85.746 35.517h323.368c32.159 0 63.003-12.776 85.747-35.517 22.738-22.741 35.517-53.585 35.517-85.746s-12.778-63.005-35.517-85.746c-22.744-22.741-53.588-35.517-85.747-35.517zM350.316 690.526c-10.72 0-21.002-4.259-28.582-11.839s-11.839-17.862-11.839-28.582c0-10.72 4.259-21.002 11.839-28.582s17.862-11.839 28.582-11.839h323.368c10.72 0 21.003 4.259 28.58 11.839 7.583 7.58 11.841 17.862 11.841 28.582s-4.258 21.002-11.841 28.582c-7.578 7.58-17.861 11.839-28.58 11.839h-323.368zM269.474 407.579c-7.995 0-15.809-2.371-22.457-6.812s-11.828-10.752-14.887-18.141c-3.060-7.384-3.86-15.511-2.3-23.353s5.409-15.042 11.062-20.696c5.653-5.654 12.856-9.502 20.696-11.065 7.841-1.558 15.968-0.76 23.354 2.301s13.699 8.241 18.14 14.886c4.441 6.651 6.812 14.465 6.812 22.458 0 10.72-4.259 21.003-11.839 28.58-7.58 7.583-17.862 11.841-28.582 11.841zM431.158 407.579c-7.995 0-15.809-2.371-22.457-6.812s-11.828-10.752-14.887-18.141c-3.060-7.384-3.86-15.511-2.3-23.353s5.409-15.042 11.062-20.696c5.653-5.654 12.856-9.502 20.696-11.065 7.841-1.558 15.968-0.76 23.354 2.301s13.699 8.241 18.14 14.886c4.441 6.651 6.812 14.465 6.812 22.458 0 10.72-4.259 21.003-11.839 28.58-7.58 7.583-17.862 11.841-28.582 11.841zM592.842 407.579c-7.993 0-15.807-2.371-22.458-6.812-6.646-4.441-11.827-10.752-14.886-18.141-3.060-7.384-3.86-15.511-2.3-23.353s5.409-15.042 11.062-20.696c5.655-5.654 12.856-9.502 20.697-11.065 7.842-1.558 15.969-0.76 23.353 2.301 7.389 3.061 13.7 8.241 18.141 14.886 4.441 6.651 6.812 14.465 6.812 22.458 0 10.72-4.258 21.003-11.841 28.58-7.578 7.583-17.861 11.841-28.58 11.841zM269.474 245.895c-7.995 0-15.809-2.371-22.457-6.812s-11.828-10.752-14.887-18.141c-3.060-7.384-3.86-15.511-2.3-23.353s5.409-15.042 11.062-20.696c5.653-5.654 12.856-9.502 20.696-11.065 7.841-1.558 15.968-0.76 23.354 2.301s13.699 8.241 18.14 14.886c4.441 6.651 6.812 14.465 6.812 22.458 0 10.72-4.259 21.003-11.839 28.58-7.58 7.583-17.862 11.841-28.582 11.841zM431.158 245.895c-7.995 0-15.809-2.371-22.457-6.812s-11.828-10.752-14.887-18.141c-3.060-7.384-3.86-15.511-2.3-23.353s5.409-15.042 11.062-20.696c5.653-5.654 12.856-9.502 20.696-11.065 7.841-1.558 15.968-0.76 23.354 2.301s13.699 8.241 18.14 14.886c4.441 6.651 6.812 14.465 6.812 22.458 0 10.72-4.259 21.003-11.839 28.58-7.58 7.583-17.862 11.841-28.582 11.841zM754.526 407.579c-7.993 0-15.807-2.371-22.458-6.812-6.645-4.441-11.825-10.752-14.886-18.141-3.061-7.384-3.859-15.511-2.301-23.353 1.563-7.842 5.411-15.042 11.065-20.696s12.854-9.502 20.696-11.065c7.842-1.558 15.969-0.76 23.353 2.301 7.389 3.061 13.7 8.241 18.141 14.886 4.441 6.651 6.812 14.465 6.812 22.458 0 10.72-4.258 21.003-11.841 28.58-7.578 7.583-17.861 11.841-28.58 11.841zM794.947 205.474c0 10.72-4.258 21.003-11.841 28.58-7.578 7.583-17.861 11.841-28.58 11.841h-161.684c-10.72 0-21.003-4.258-28.582-11.841-7.58-7.578-11.839-17.861-11.839-28.58s4.259-21.003 11.839-28.58c7.579-7.583 17.862-11.841 28.582-11.841h161.684c10.72 0 21.003 4.258 28.58 11.841 7.583 7.578 11.841 17.861 11.841 28.58z" />
<glyph unicode="&#xe912;" glyph-name="arrow-right-circle" d="M981.333 426.667c0 129.579-52.565 246.997-137.472 331.861s-202.283 137.472-331.861 137.472-246.997-52.565-331.861-137.472-137.472-202.283-137.472-331.861 52.565-246.997 137.472-331.861 202.283-137.472 331.861-137.472 246.997 52.565 331.861 137.472 137.472 202.283 137.472 331.861zM896 426.667c0-106.069-42.923-201.984-112.469-271.531s-165.461-112.469-271.531-112.469-201.984 42.923-271.531 112.469-112.469 165.461-112.469 271.531 42.923 201.984 112.469 271.531 165.461 112.469 271.531 112.469 201.984-42.923 271.531-112.469 112.469-165.461 112.469-271.531zM341.333 384h238.336l-97.835-97.835c-16.683-16.683-16.683-43.691 0-60.331s43.691-16.683 60.331 0l170.667 170.667c3.925 3.925 7.083 8.619 9.259 13.824 4.309 10.453 4.309 22.229 0 32.683-2.091 5.035-5.163 9.728-9.259 13.824l-170.667 170.667c-16.683 16.683-43.691 16.683-60.331 0s-16.683-43.691 0-60.331l97.835-97.835h-238.336c-23.552 0-42.667-19.115-42.667-42.667s19.115-42.667 42.667-42.667z" />
<glyph unicode="&#xe913;" glyph-name="calendar-2" d="M816.762 813.714h-91.429v30.476c0 8.083-3.209 15.834-8.928 21.55-5.715 5.715-13.463 8.926-21.548 8.926s-15.833-3.211-21.548-8.926c-5.72-5.715-8.928-13.467-8.928-21.55v-30.476h-304.762v30.476c0 8.083-3.211 15.834-8.926 21.55s-13.467 8.926-21.55 8.926c-8.083 0-15.834-3.211-21.55-8.926s-8.926-13.467-8.926-21.55v-30.476h-91.429c-16.166 0-31.669-6.422-43.1-17.853s-17.853-26.934-17.853-43.1v-609.524c0-16.165 6.422-31.671 17.853-43.101s26.934-17.852 43.1-17.852h609.524c16.165 0 31.671 6.422 43.101 17.852s17.852 26.936 17.852 43.101v609.524c0 16.166-6.422 31.669-17.852 43.1s-26.936 17.853-43.101 17.853zM298.667 752.762v-30.476c0-8.083 3.211-15.834 8.926-21.55s13.467-8.926 21.55-8.926c8.083 0 15.834 3.211 21.55 8.926s8.926 13.467 8.926 21.55v30.476h304.762v-30.476c0-8.083 3.209-15.834 8.928-21.55 5.715-5.715 13.463-8.926 21.548-8.926s15.833 3.211 21.548 8.926c5.72 5.715 8.928 13.467 8.928 21.55v30.476h91.429v-121.905h-609.524v121.905h91.429zM816.762 143.238h-609.524v426.667h609.524v-426.667zM557.714 432.762c0-9.040-2.682-17.881-7.704-25.395-5.022-7.519-12.161-13.38-20.514-16.837-8.353-3.462-17.545-4.369-26.414-2.604s-17.013 6.12-23.406 12.512c-6.393 6.393-10.747 14.536-12.511 23.406s-0.858 18.061 2.601 26.413c3.46 8.353 9.319 15.493 16.837 20.516s16.357 7.704 25.398 7.704c12.122 0 23.752-4.816 32.324-13.39s13.39-20.203 13.39-32.325zM725.333 432.762c0-9.040-2.682-17.881-7.704-25.395-5.022-7.519-12.161-13.38-20.514-16.837-8.353-3.462-17.545-4.369-26.414-2.604s-17.013 6.12-23.406 12.512c-6.393 6.393-10.747 14.536-12.512 23.406s-0.858 18.061 2.604 26.413c3.457 8.353 9.318 15.493 16.837 20.516 7.514 5.023 16.355 7.704 25.395 7.704 12.122 0 23.752-4.816 32.324-13.39s13.39-20.203 13.39-32.325zM390.095 280.381c0-9.040-2.681-17.881-7.704-25.395-5.023-7.519-12.163-13.38-20.516-16.837-8.353-3.462-17.545-4.369-26.413-2.604s-17.013 6.12-23.406 12.512c-6.393 6.393-10.747 14.536-12.511 23.406s-0.858 18.061 2.601 26.414c3.46 8.353 9.319 15.492 16.837 20.514s16.356 7.704 25.398 7.704c12.124 0 23.752-4.818 32.325-13.39s13.39-20.202 13.39-32.324zM557.714 280.381c0-9.040-2.682-17.881-7.704-25.395-5.022-7.519-12.161-13.38-20.514-16.837-8.353-3.462-17.545-4.369-26.414-2.604s-17.013 6.12-23.406 12.512c-6.393 6.393-10.747 14.536-12.511 23.406s-0.858 18.061 2.601 26.414c3.46 8.353 9.319 15.492 16.837 20.514s16.357 7.704 25.398 7.704c12.122 0 23.752-4.818 32.324-13.39s13.39-20.202 13.39-32.324zM725.333 280.381c0-9.040-2.682-17.881-7.704-25.395-5.022-7.519-12.161-13.38-20.514-16.837-8.353-3.462-17.545-4.369-26.414-2.604s-17.013 6.12-23.406 12.512c-6.393 6.393-10.747 14.536-12.512 23.406s-0.858 18.061 2.604 26.414c3.457 8.353 9.318 15.492 16.837 20.514 7.514 5.022 16.355 7.704 25.395 7.704 12.122 0 23.752-4.818 32.324-13.39s13.39-20.202 13.39-32.324z" />
<glyph unicode="&#xe914;" glyph-name="cart" d="M761.705 211.763c-62.308 0.059-112.861-50.402-112.926-112.705-0.059-62.308 50.402-112.861 112.705-112.926 62.308-0.059 112.861 50.402 112.926 112.705v0.108c-0.059 62.238-50.467 112.694-112.705 112.818zM961.795 751.972c-2.7 0.523-5.438 0.788-8.192 0.793h-686.885l-10.879 72.78c-6.778 48.334-48.122 84.296-96.93 84.311h-88.446c-24.033 0-43.515-19.482-43.515-43.515s19.482-43.516 43.515-43.516h88.554c2.673 0.019 5.259-0.946 7.266-2.712s3.293-4.209 3.613-6.862l67.013-459.302c9.187-58.363 59.389-101.419 118.471-101.608h452.669c56.881-0.075 105.952 39.898 117.383 95.625l70.818 353.015c4.57 23.596-10.86 46.424-34.455 50.99zM485.339 103.78c-2.649 60.475-52.56 108.086-113.098 107.876-62.253-2.517-110.681-55.027-108.166-117.28 2.414-59.732 51.005-107.213 110.777-108.242h2.72c62.245 2.727 110.492 55.398 107.766 117.647z" />
<glyph unicode="&#xe916;" glyph-name="categories" d="M512.012 925.708c-15.716 0-31.265-3.23-45.681-9.49l-390.896-182.422c-11.96-6.033-22.011-15.266-29.034-26.674s-10.741-24.541-10.741-37.936c0-13.396 3.718-26.528 10.741-37.936s17.074-20.641 29.034-26.674l1.026-0.496 389.869-180.561c14.416-6.259 29.965-9.49 45.681-9.49s31.27 3.219 45.685 9.479l390.888 182.433c11.96 6.033 22.016 15.266 29.034 26.674 7.025 11.407 10.745 24.54 10.745 37.936s-3.721 26.528-10.745 37.936c-7.018 11.407-17.073 20.641-29.034 26.674l-1.024 0.496-389.869 180.56c-14.416 6.26-29.964 9.49-45.681 9.49zM985.184 455.089c11.831-25.683 0.601-56.094-25.081-67.925l-400.585-184.534c-15.223-6.943-31.758-10.534-48.489-10.534s-33.267 3.591-48.489 10.54l-0.261 0.116-398.441 184.452c-25.661 11.879-36.833 42.312-24.954 67.972s42.311 36.833 67.972 24.954l398.264-184.37c1.858-0.833 3.872-1.264 5.909-1.264 2.047 0 4.071 0.435 5.936 1.277l0.057 0.025 400.237 184.372c25.682 11.831 56.095 0.601 67.925-25.081zM960.102 165.294c25.682 11.831 36.912 42.243 25.081 67.925-11.831 25.689-42.243 36.912-67.925 25.081l-400.294-184.395c-1.866-0.84-3.889-1.277-5.936-1.277-2.037 0-4.051 0.43-5.909 1.263l-398.264 184.368c-25.661 11.885-56.093 0.71-67.972-24.951s-0.707-56.095 24.954-67.973l398.702-184.566c15.222-6.95 31.758-10.54 48.489-10.54s33.266 3.591 48.489 10.534l0.173 0.082 400.412 184.45z" />
<glyph unicode="&#xe917;" glyph-name="chart" d="M928 128c0-8.486-3.371-16.627-9.374-22.626-5.999-6.003-14.14-9.374-22.626-9.374h-768c-8.487 0-16.626 3.371-22.627 9.374-6.001 5.999-9.373 14.14-9.373 22.626v640c0 8.487 3.372 16.626 9.373 22.627s14.141 9.373 22.627 9.373c8.487 0 16.626-3.372 22.627-9.373s9.373-14.141 9.373-22.627v-434.761l201.36 201.401c2.972 2.975 6.502 5.335 10.386 6.946s8.049 2.439 12.254 2.439c4.205 0 8.369-0.829 12.254-2.439s7.414-3.971 10.386-6.946l105.36-105.401 210.761 210.761h-82.761c-8.486 0-16.627 3.372-22.626 9.373-6.003 6.001-9.374 14.141-9.374 22.627s3.371 16.626 9.374 22.627c5.999 6.001 14.14 9.373 22.626 9.373h160c8.486 0 16.627-3.372 22.626-9.373 6.003-6.001 9.374-14.141 9.374-22.627v-160c0-8.486-3.371-16.627-9.374-22.626-5.999-6.003-14.14-9.374-22.626-9.374s-16.627 3.371-22.626 9.374c-6.003 5.999-9.374 14.14-9.374 22.626v82.76l-233.361-233.399c-2.97-2.978-6.498-5.338-10.385-6.946-3.883-1.613-8.047-2.441-12.254-2.441s-8.371 0.828-12.254 2.441c-3.887 1.609-7.415 3.968-10.385 6.946l-105.361 105.399-224-224v-82.761h736c8.486 0 16.627-3.371 22.626-9.374 6.003-5.999 9.374-14.14 9.374-22.626z" />
<glyph unicode="&#xe918;" glyph-name="check" d="M871.702 793.132l-526.091-526.088-193.304 193.304c-9.372 9.372-24.568 9.372-33.942 0l-56.568-56.568c-9.372-9.373-9.372-24.569 0-33.943l266.842-266.845c9.372-9.37 24.568-9.37 33.942 0l599.628 599.63c9.37 9.372 9.37 24.568 0 33.942l-56.569 56.568c-9.377 9.372-24.569 9.372-33.938 0z" />
<glyph unicode="&#xe919;" glyph-name="close" d="M822.641 182.641c2.97-2.975 5.33-6.502 6.938-10.388 1.613-3.881 2.437-8.049 2.437-12.252s-0.824-8.366-2.437-12.252c-1.608-3.886-3.968-7.414-6.938-10.388-2.975-2.97-6.502-5.33-10.388-6.938-3.886-1.613-8.049-2.437-12.252-2.437s-8.371 0.824-12.252 2.437c-3.886 1.608-7.414 3.968-10.388 6.938l-265.36 265.4-265.36-265.4c-6.005-6.001-14.149-9.375-22.64-9.375s-16.635 3.374-22.64 9.375c-6.004 6.006-9.378 14.152-9.378 22.641 0 8.494 3.374 16.635 9.378 22.641l265.4 265.36-265.4 265.36c-6.004 6.005-9.378 14.149-9.378 22.64s3.374 16.635 9.378 22.64c6.005 6.004 14.149 9.378 22.64 9.378s16.635-3.374 22.64-9.378l265.36-265.4 265.36 265.4c6.006 6.004 14.147 9.378 22.641 9.378 8.489 0 16.635-3.374 22.641-9.378 6.001-6.005 9.375-14.149 9.375-22.64s-3.374-16.635-9.375-22.64l-265.4-265.36 265.4-265.36z" />
<glyph unicode="&#xe91b;" glyph-name="comment-user" d="M512 528.842c-32.161 0-63.005 12.776-85.746 35.517s-35.517 53.585-35.517 85.746c0 32.161 12.776 63.005 35.517 85.746s53.585 35.517 85.746 35.517c32.161 0 63.003-12.776 85.747-35.517 22.738-22.741 35.517-53.585 35.517-85.746s-12.778-63.005-35.517-85.746c-22.744-22.741-53.585-35.517-85.747-35.517zM389.443 316.675c8.312 25.966 24.66 48.624 46.684 64.701 22.024 16.071 48.586 24.738 75.853 24.738s53.828-8.666 75.85-24.738c22.027-16.077 38.373-38.734 46.689-64.701 2.679-10.391 9.372-19.289 18.615-24.738 9.238-5.454 20.27-7.006 30.655-4.328s19.284 9.378 24.738 18.615c5.449 9.243 7.006 20.27 4.322 30.661-52.989 199.96-348.831 199.879-401.661 0-1.459-5.185-1.869-10.601-1.206-15.947 0.663-5.341 2.387-10.493 5.070-15.161s6.27-8.747 10.552-12.008c4.282-3.266 9.172-5.637 14.383-6.985 5.212-1.342 10.639-1.633 15.965-0.857 5.326 0.781 10.442 2.619 15.048 5.4 4.607 2.786 8.611 6.462 11.778 10.811 3.167 4.355 5.433 9.291 6.665 14.535zM512.364-23.514c-19.942-0.011-39.192 7.314-54.083 20.577l-151.498 127.569h-118.151c-42.881 0-84.006 17.036-114.328 47.357s-47.356 71.448-47.356 114.327v485.053c0 42.881 17.035 84.006 47.356 114.328s71.447 47.356 114.328 47.356h646.737c42.879 0 84.006-17.035 114.327-47.356s47.357-71.447 47.357-114.328v-485.053c0-42.879-17.036-84.006-47.357-114.327s-71.448-47.357-114.327-47.357h-115.324l-155.497-128.539c-14.406-12.703-32.975-19.682-52.184-19.607zM188.632 852.211c-21.44 0-42.003-8.518-57.164-23.678s-23.678-35.724-23.678-57.164v-485.053c0-21.439 8.518-42.006 23.678-57.166s35.724-23.676 57.164-23.676h132.945c9.525 0 18.745-3.363 26.031-9.502l163.544-137.83 168.634 138.073c7.249 5.988 16.352 9.259 25.751 9.259h129.832c21.439 0 42.006 8.515 57.166 23.676s23.676 35.727 23.676 57.166v485.053c0 21.44-8.515 42.003-23.676 57.164s-35.727 23.678-57.166 23.678h-646.737z" />
<glyph unicode="&#xe91c;" glyph-name="cup" d="M34.133 874.671c0 28.277 22.923 51.2 51.2 51.2h196.923c1.281 0 2.551-0.047 3.809-0.14h451.986c1.222 0.089 2.458 0.133 3.693 0.133h196.922c28.276 0 51.2-22.923 51.2-51.2v-196.949c0-126.925-95.3-231.592-218.255-246.344-30.543-93.471-110.161-164.743-208.411-183.38v-175.459h178.545c28.276 0 51.2-22.924 51.2-51.2s-22.924-51.2-51.2-51.2h-227.952c-0.595-0.020-1.193-0.034-1.793-0.034s-1.197 0.014-1.793 0.034h-227.951c-28.277 0-51.2 22.924-51.2 51.2s22.923 51.2 51.2 51.2h178.544v175.459c-98.25 18.637-177.868 89.909-208.413 183.38-122.95 14.752-218.253 119.418-218.253 246.344v196.955zM231.057 541.241v282.229h-94.523v-145.755c0-62.463 39.3-115.747 94.523-136.475zM792.945 823.465v-282.223c55.221 20.727 94.522 74.011 94.522 136.475v145.749h-94.522z" />
<glyph unicode="&#xe91d;" glyph-name="dashboard" d="M309.895 933.053h-121.263c-42.881 0-84.006-17.035-114.328-47.356s-47.356-71.447-47.356-114.328v-121.263c0-42.881 17.035-84.006 47.356-114.328s71.447-47.356 114.328-47.356h121.263c42.881 0 84.006 17.035 114.328 47.356s47.356 71.447 47.356 114.328v121.263c0 42.881-17.035 84.006-47.356 114.328s-71.447 47.356-114.328 47.356v0zM390.737 650.105c0-21.44-8.518-42.003-23.678-57.164s-35.724-23.678-57.164-23.678h-121.263c-21.44 0-42.003 8.518-57.164 23.678s-23.678 35.724-23.678 57.164v121.263c0 21.44 8.518 42.003 23.678 57.164s35.724 23.678 57.164 23.678h121.263c21.44 0 42.003-8.518 57.164-23.678s23.678-35.724 23.678-57.164v-121.263zM835.368 933.053h-121.263c-42.884 0-84.006-17.035-114.327-47.356s-47.357-71.447-47.357-114.328v-121.263c0-42.881 17.036-84.007 47.357-114.329s71.443-47.356 114.327-47.356h121.263c42.879 0 84.006 17.035 114.327 47.356s47.357 71.447 47.357 114.329v121.263c0 42.881-17.036 84.006-47.357 114.328s-71.448 47.356-114.327 47.356v0zM916.211 650.105c0-21.441-8.515-42.003-23.676-57.164-15.166-15.161-35.727-23.678-57.166-23.678h-121.263c-21.439 0-42.006 8.517-57.166 23.678s-23.676 35.723-23.676 57.164v121.263c0 21.44 8.515 42.003 23.676 57.164s35.727 23.678 57.166 23.678h121.263c21.439 0 42-8.518 57.166-23.678 15.161-15.161 23.676-35.724 23.676-57.164v-121.263zM309.895 407.579h-121.263c-42.881 0-84.006-17.036-114.328-47.357s-47.356-71.448-47.356-114.327v-121.263c0-42.884 17.035-84.006 47.356-114.327s71.447-47.357 114.328-47.357h121.263c42.881 0 84.006 17.036 114.328 47.357s47.356 71.443 47.356 114.327v121.263c0 42.879-17.035 84.006-47.356 114.327s-71.447 47.357-114.328 47.357zM390.737 124.632c0-21.439-8.518-42.006-23.678-57.166s-35.724-23.676-57.164-23.676h-121.263c-21.44 0-42.003 8.515-57.164 23.676s-23.678 35.727-23.678 57.166v121.263c0 21.439 8.518 42.006 23.678 57.166s35.724 23.676 57.164 23.676h121.263c21.44 0 42.003-8.515 57.164-23.676s23.678-35.727 23.678-57.166v-121.263zM835.368 407.579h-121.263c-42.884 0-84.006-17.036-114.327-47.357s-47.357-71.448-47.357-114.327v-121.263c0-42.884 17.036-84.006 47.357-114.327s71.443-47.357 114.327-47.357h121.263c42.879 0 84.006 17.036 114.327 47.357s47.357 71.443 47.357 114.327v121.263c0 42.879-17.036 84.006-47.357 114.327s-71.448 47.357-114.327 47.357zM916.211 124.632c0-21.439-8.515-42.006-23.676-57.166-15.166-15.161-35.727-23.676-57.166-23.676h-121.263c-21.439 0-42.006 8.515-57.166 23.676s-23.676 35.727-23.676 57.166v121.263c0 21.439 8.515 42.006 23.676 57.166s35.727 23.676 57.166 23.676h121.263c21.439 0 42-8.515 57.166-23.676 15.161-15.161 23.676-35.727 23.676-57.166v-121.263z" />
<glyph unicode="&#xe91f;" glyph-name="diamond" d="M965.519 700.915l-121.705 164.433c-14.967 20.925-34.708 37.981-57.581 49.755s-48.225 17.928-73.949 17.95h-400.573c-25.601 0.024-50.842-6.032-73.646-17.669s-42.518-28.523-57.52-49.268l-123.89-165.605c-20.172-28.444-30.589-62.656-29.693-97.514s13.058-68.491 34.664-95.86l355.382-498.313c11.325-14.336 25.761-25.918 42.216-33.867s34.5-12.051 52.774-12.008c18.588 0.038 36.918 4.339 53.583 12.574 16.662 8.23 31.219 20.178 42.536 34.918l352.552 492.776c22.577 27.77 35.301 62.245 36.18 98.022 0.873 35.777-10.143 70.834-31.329 99.678zM778.45 817.812l121.991-164.837c0.647-0.889 0.808-1.94 1.455-2.87h-197.74l-57.721 202.105h65.849c12.972-0.040 25.751-3.184 37.257-9.167 11.512-5.984 21.423-14.635 28.909-25.231zM511.997 160.283l-109.136 408.98h218.271l-109.135-408.98zM403.911 650.105l57.721 202.105h100.73l57.719-202.105h-216.17zM245.905 818.378c7.501 10.453 17.379 18.973 28.821 24.856s24.119 8.959 36.984 8.977h65.846l-57.721-202.105h-199.195c0.566 0.889 0.728 1.981 1.374 2.829l123.891 165.443zM125.895 556.126c-2.918 4.122-5.423 8.522-7.478 13.137h200.852l121.021-453.928-314.395 440.792zM583.583 114.931l121.263 454.333h201.539c-2.603-6.034-5.901-11.744-9.825-17.017l-312.978-437.315z" />
<glyph unicode="&#xe920;" glyph-name="dollar-1" d="M154.891 317.249l132.205-233.592c6.868-12.137 2.558-27.688-9.578-34.553l-48.318-27.345c-12.136-6.87-27.685-2.56-34.553 9.577l-132.203 233.592c-6.867 12.137-2.558 27.688 9.579 34.553l48.318 27.345c12.134 6.87 27.684 2.56 34.552-9.577zM570.417 877.5c117.261 0 212.32-95.061 212.32-212.325s-95.058-212.322-212.32-212.322c-117.266 0-212.326 95.060-212.326 212.322 0 117.264 95.061 212.325 212.326 212.325zM655.186 737.626c-5.276 16.722-17.034 31.039-32.821 40.952-8.602 5.4-18.414 9.51-28.993 11.97v11.124c0 12.678-10.28 22.957-22.955 22.957-12.68 0-22.96-10.279-22.96-22.957v-11.101c-14.229-3.284-27.043-9.538-37.372-17.896-17.012-13.763-27.532-33.178-27.532-54.981s10.52-41.219 27.532-54.981c15.645-12.661 36.993-20.493 60.331-20.493 12.506 0 23.614-3.925 31.455-10.271 6.482-5.244 10.489-12.089 10.489-19.291s-4.007-14.046-10.489-19.291c-7.84-6.343-18.948-10.269-31.455-10.269-9.737 0-18.619 2.368-25.796 6.407-6.652 3.74-11.683 8.752-14.265 14.378-5.249 11.49-18.819 16.548-30.31 11.298s-16.549-18.82-11.3-30.31c6.723-14.648 18.512-26.955 33.454-35.363 7.653-4.303 16.166-7.619 25.257-9.724v-11.107c0-12.678 10.28-22.956 22.955-22.956 12.68 0 22.96 10.279 22.96 22.956v11.101c14.229 3.285 27.043 9.538 37.372 17.896 17.012 13.763 27.532 33.178 27.532 54.981s-10.52 41.218-27.532 54.981c-15.649 12.662-36.993 20.494-60.331 20.494-12.506 0-23.614 3.925-31.455 10.269-6.482 5.244-10.494 12.090-10.494 19.291s4.011 14.046 10.494 19.291c7.84 6.346 18.948 10.271 31.455 10.271 10.614 0 20.159-2.768 27.559-7.415 6.665-4.182 11.491-9.795 13.45-16.022 3.816-12.085 16.705-18.79 28.788-14.975 12.088 3.811 18.793 16.699 14.977 28.784zM209.906 313.259l100.272-177.179 9.257 5.347 226.677-60.737c32.608-8.74 64.058-4.612 92.797 13.085l304.533 181.31c44.508 27.399 24.848 147.34-109.016 69.378l-164.227-89.181c-24.051-14.002-49.286-17.764-76.769-13.37-22.906 3.664-77.704 18.989-132.466 33.663-9.937 2.662-15.834 12.876-13.17 22.813 2.662 9.937 12.876 15.836 22.813 13.174l154.7-41.45c1.576 3.219 2.832 6.589 3.749 10.057 6.928 25.849-8.949 51.347-34.411 59.601-68.599 12.373-135.867 41.058-177.061 54.419-36.949 11.985-71.129-1.825-104.745-21.299l-102.933-59.632z" />
<glyph unicode="&#xe921;" glyph-name="dollar-2" d="M497.174 928.565c-264.574 0-480.174-215.217-480.174-480.173 0-264.958 215.217-480.176 480.174-480.176s480.171 215.218 480.171 480.176c0 264.956-215.597 480.173-480.171 480.173zM658.062 272.393c-10.333-19.514-24.487-35.778-41.517-48.782-17.217-12.626-36.348-22.003-57.771-28.507-5.93-1.719-12.052-3.442-18.174-4.399v-28.886c0-24.104-19.514-43.618-43.618-43.618s-44.001 19.514-44.001 44.001v26.397c-13.391 2.106-26.782 4.786-39.599 8.611-25.443 7.653-47.443 20.28-67.339 34.433-8.609 5.93-19.895 19.322-19.895 19.322-4.4 4.399-10.331 11.669-10.331 27.167 0 22.381 18.174 40.938 40.174 40.555 14.73 0 28.887-12.052 28.887-12.052 14.348-11.669 22.382-18.94 36.73-25.061 21.043-9.372 45.34-13.775 72.119-13.775 16.455 0 31.949 3.063 46.49 8.993 13.775 5.93 25.061 14.158 34.050 24.678 8.228 10.329 12.435 22.764 12.435 37.879 0 19.514-7.27 36.348-21.615 51.841-14.732 15.498-39.794 25.061-74.992 29.269-33.667 3.446-63.895 12.052-89.339 25.444-25.826 13.392-46.487 31.374-60.453 52.992-14.156 21.618-21.235 46.678-21.235 74.226 0 29.843 8.609 56.052 25.061 77.67 16.452 21.044 38.452 37.496 66 48.4 13.774 5.548 27.931 9.948 43.043 12.626v29.269c0 24.104 19.514 43.618 43.618 43.618s44.001-19.513 44.001-44v-28.122c10.903-1.722 21.041-4.4 30.226-7.843 20.658-7.652 38.453-18.557 53.181-32.33 8.228-7.843 15.881-16.452 22.764-25.826 0.957-1.339 2.489-2.678 3.446-4.209 4.399-6.122 6.888-14.157 6.888-22.765 0-22.382-22.386-38.452-40.559-40.174-17.217-1.722-33.284 17.791-33.284 17.791-7.27 9.374-15.498 17.217-25.061 23.722-14.349 9.565-34.625 14.73-60.452 15.113-27.55 0.383-50.123-5.165-68.105-16.835-16.452-10.713-24.487-25.826-24.487-47.061 0-10.904 2.487-22 7.652-32.33 4.783-9.565 14.348-18.557 28.504-26.4 14.732-8.226 37.496-14.157 66.956-17.6 49.548-4.782 89.337-20.659 119.185-47.060 30.609-26.784 46.102-63.323 46.102-108.277-0.191-25.827-5.356-48.595-15.685-68.105z" />
<glyph unicode="&#xe922;" glyph-name="download" d="M916.211 245.895v-80.842c0-32.159-12.778-63.003-35.517-85.747-22.744-22.738-53.588-35.517-85.747-35.517h-565.895c-32.161 0-63.005 12.778-85.746 35.517-22.741 22.744-35.517 53.588-35.517 85.747v80.842c0 10.72-4.259 21.003-11.839 28.58-7.58 7.583-17.862 11.841-28.582 11.841s-21.002-4.258-28.582-11.841c-7.58-7.578-11.839-17.861-11.839-28.58v-80.842c0.064-53.582 21.378-104.949 59.266-142.837s89.257-59.203 142.839-59.268h565.895c53.582 0.065 104.949 21.38 142.837 59.268s59.203 89.255 59.268 142.837v80.842c0 10.72-4.258 21.003-11.841 28.58-7.578 7.583-17.861 11.841-28.58 11.841s-21.003-4.258-28.58-11.841c-7.583-7.578-11.841-17.861-11.841-28.58zM471.576 892.647l1.293-637.725c-6.585 3.546-12.651 7.982-18.028 13.177l-156.793 156.795c-3.729 3.86-8.189 6.94-13.121 9.059s-10.236 3.233-15.603 3.28c-5.367 0.046-10.689-0.976-15.657-3.008s-9.481-5.034-13.276-8.829c-3.795-3.795-6.797-8.31-8.829-13.274-2.032-4.969-3.055-10.294-3.008-15.662 0.047-5.363 1.162-10.671 3.28-15.603s5.198-9.388 9.059-13.118l156.793-156.877c30.32-30.31 71.438-47.336 114.311-47.336s83.993 17.025 114.309 47.336l156.796 156.796c3.859 3.73 6.942 8.187 9.060 13.118s3.234 10.24 3.277 15.603c0.049 5.368-0.975 10.693-3.007 15.662-2.032 4.964-5.034 9.478-8.828 13.274s-8.311 6.796-13.274 8.829c-4.969 2.032-10.294 3.055-15.662 3.008-5.363-0.047-10.671-1.162-15.603-3.28s-9.388-5.198-13.118-9.059l-156.796-156.795c-4.657-4.522-9.84-8.472-15.439-11.76l-1.293 636.389c0 10.72-4.259 21.002-11.839 28.582s-17.862 11.839-28.582 11.839c-10.72 0-21.002-4.259-28.582-11.839s-11.839-17.862-11.839-28.582z" />
<glyph unicode="&#xe923;" glyph-name="download-2" d="M877.714 387.048v-243.81c0-8.085-3.209-15.833-8.928-21.548-5.715-5.72-13.463-8.928-21.548-8.928h-670.476c-8.083 0-15.834 3.209-21.55 8.928-5.715 5.715-8.926 13.463-8.926 21.548v243.81c0 8.085 3.211 15.833 8.926 21.548 5.715 5.72 13.467 8.928 21.55 8.928s15.834-3.209 21.55-8.928c5.715-5.715 8.926-13.463 8.926-21.548v-213.333h609.524v213.333c0 8.085 3.209 15.833 8.928 21.548 5.715 5.72 13.463 8.928 21.548 8.928s15.833-3.209 21.548-8.928c5.72-5.715 8.928-13.463 8.928-21.548zM490.437 365.485c2.833-2.833 6.193-5.081 9.894-6.617 3.696-1.531 7.665-2.321 11.669-2.321s7.973 0.79 11.669 2.321c3.701 1.536 7.061 3.784 9.894 6.617l152.381 152.381c2.833 2.832 5.076 6.193 6.607 9.893 1.536 3.7 2.321 7.665 2.321 11.669s-0.785 7.97-2.321 11.669c-1.531 3.7-3.774 7.061-6.607 9.893s-6.193 5.078-9.894 6.61c-3.701 1.532-7.665 2.321-11.669 2.321s-7.968-0.789-11.669-2.321c-3.701-1.533-7.061-3.779-9.894-6.61l-100.342-100.381v353.105c0 8.083-3.209 15.834-8.928 21.55-5.715 5.715-13.463 8.926-21.548 8.926s-15.833-3.211-21.548-8.926c-5.717-5.715-8.928-13.467-8.928-21.55v-353.105l-100.343 100.381c-5.719 5.718-13.475 8.931-21.562 8.931s-15.843-3.213-21.562-8.931c-5.718-5.719-8.931-13.475-8.931-21.562s3.213-15.843 8.931-21.562l152.38-152.381z" />
<glyph unicode="&#xe925;" glyph-name="email" d="M877.714 752.762h-731.429c-8.083 0-15.834-3.211-21.55-8.926s-8.926-13.467-8.926-21.55v-518.095c0-16.165 6.422-31.671 17.853-43.101s26.934-17.852 43.1-17.852h670.476c16.165 0 31.671 6.422 43.101 17.852s17.852 26.936 17.852 43.101v518.095c0 8.083-3.209 15.834-8.928 21.55-5.715 5.715-13.463 8.926-21.548 8.926zM512 428.383l-287.352 263.426h574.706l-287.354-263.426zM400.419 448l-223.657-204.99v409.981l223.657-204.991zM445.524 406.665l45.714-42.091c5.623-5.164 12.977-8.026 20.609-8.026s14.986 2.862 20.608 8.026l45.714 42.091 220.955-202.474h-574.477l220.876 202.474zM623.582 448l223.656 205.029v-410.058l-223.656 205.029z" />
<glyph unicode="&#xe926;" glyph-name="fb" d="M707.835 791.301h92.774v161.536c-44.887 4.935-90.015 7.328-135.168 7.168-133.683 0-225.281-84.121-225.281-238.745v-142.285h-147.661v-180.582h147.558v-454.451h180.993v454.4h141.619l22.528 180.582h-164.147v124.416c0 52.224 14.080 87.962 86.784 87.962z" />
<glyph unicode="&#xe927;" glyph-name="fire" d="M724.914 351.466c-7.904-44.139-29.14-84.802-60.85-116.507-31.715-31.705-72.377-52.931-116.521-60.826-1.677-0.268-3.369-0.41-5.066-0.419-7.646 0-15.009 2.877-20.636 8.055-5.622 5.179-9.094 12.278-9.728 19.9-0.632 7.617 1.619 15.194 6.315 21.231 4.691 6.032 11.483 10.084 19.022 11.347 63.122 10.63 116.682 64.19 127.39 127.429 1.351 7.973 5.817 15.077 12.41 19.758 6.597 4.681 14.78 6.549 22.752 5.193s15.077-5.817 19.758-12.415c4.676-6.593 6.549-14.775 5.193-22.747h-0.039zM847.238 387.048c0-88.912-35.318-174.178-98.187-237.051-62.874-62.869-148.139-98.187-237.051-98.187-88.911 0-174.18 35.318-237.049 98.187-62.869 62.874-98.189 148.139-98.189 237.051 0 106.362 41.905 215.124 124.419 323.238 2.612 3.424 5.92 6.254 9.705 8.307s7.963 3.279 12.257 3.599c4.294 0.32 8.607-0.273 12.655-1.741s7.739-3.777 10.83-6.774l91.886-89.181 83.809 230.133c1.677 4.59 4.428 8.71 8.031 12.013 3.599 3.303 7.938 5.691 12.659 6.965 4.715 1.274 9.669 1.395 14.443 0.353s9.226-3.217 12.98-6.341c83.315-69.143 276.802-254.095 276.802-480.571zM786.286 387.048c0 175.581-136.343 327.314-221.755 405.067l-84.836-232.648c-1.741-4.778-4.65-9.045-8.463-12.411s-8.407-5.725-13.364-6.861c-4.957-1.136-10.12-1.014-15.017 0.356s-9.375 3.944-13.023 7.487l-100.457 97.447c-60.838-87.809-91.657-174.626-91.657-258.438 0-72.743 28.898-142.512 80.336-193.95s121.205-80.335 193.95-80.335c72.743 0 142.512 28.896 193.95 80.335s80.335 121.207 80.335 193.95z" />
<glyph unicode="&#xe928;" glyph-name="flash" d="M849.097 485.745c-1.163 4.923-3.527 9.486-6.877 13.275-3.346 3.793-7.582 6.701-12.325 8.462l-221.221 82.981 56.291 281.587c1.278 6.543 0.389 13.322-2.527 19.316s-7.705 10.876-13.64 13.911c-5.935 3.035-12.694 4.057-19.259 2.912s-12.583-4.394-17.142-9.258l-430.080-460.801c-3.493-3.678-6.020-8.167-7.355-13.062-1.335-4.899-1.436-10.047-0.296-14.991s3.489-9.527 6.835-13.345c3.345-3.813 7.583-6.742 12.336-8.52l221.3-82.985-56.142-281.276c-1.275-6.545-0.387-13.324 2.53-19.317 2.916-5.997 7.703-10.879 13.638-13.91 5.935-3.035 12.695-4.059 19.262-2.912 6.566 1.143 12.583 4.395 17.141 9.257l430.080 460.8c3.428 3.682 5.902 8.151 7.201 13.009 1.298 4.862 1.384 9.97 0.25 14.868zM440.443 117.76l40.202 201.138c1.442 7.135 0.299 14.545-3.215 20.918-3.518 6.369-9.179 11.289-15.983 13.873l-202.906 76.222 324.942 348.135-40.169-201.139c-1.438-7.134-0.299-14.546 3.219-20.917 3.514-6.371 9.179-11.288 15.983-13.873l202.752-76.033-324.825-348.324z" />
<glyph unicode="&#xe929;" glyph-name="folder" d="M864 672h-341.32l-110.959 83.2c-11.094 8.278-24.558 12.765-38.4 12.8h-213.32c-16.974 0-33.252-6.743-45.255-18.745s-18.745-28.281-18.745-45.255v-544c0-16.973 6.743-33.254 18.745-45.254s28.281-18.746 45.255-18.746h707.558c16.026 0.019 31.386 6.394 42.714 17.728 11.334 11.328 17.709 26.688 17.728 42.714v451.558c0 16.974-6.746 33.252-18.746 45.255s-28.282 18.745-45.254 18.745zM864 160h-704v544h213.32l110.959-83.2c11.094-8.278 24.558-12.765 38.4-12.8h341.32v-448z" />
<glyph unicode="&#xe92b;" glyph-name="heart" d="M920.096 795.536c-50.219 54.466-119.129 84.463-194.043 84.463-55.997 0-107.283-17.704-152.43-52.616-22.781-17.621-43.424-39.184-61.623-64.345-18.193 25.156-38.842 46.724-61.63 64.345-45.142 34.912-96.425 52.616-152.424 52.616-74.916 0-143.829-29.997-194.047-84.463-49.617-53.83-76.951-127.37-76.951-207.081 0-82.042 30.575-157.146 96.217-236.355 58.722-70.85 143.119-142.778 240.853-226.067 33.374-28.44 71.202-60.68 110.48-95.022 10.379-9.092 23.707-14.099 37.503-14.093 13.803 0 27.125 5.001 37.488 14.077 39.28 34.347 77.13 66.603 110.518 95.065 97.717 83.273 182.116 155.19 240.839 226.051 65.638 79.197 96.207 154.301 96.207 236.352 0 79.704-27.335 153.244-76.956 207.074z" />
<glyph unicode="&#xe92c;" glyph-name="heart-line" d="M697.714 774.857c-76.7 0-143.854-32.983-185.714-88.734-41.86 55.751-109.014 88.734-185.714 88.734-61.055-0.069-119.589-24.353-162.76-67.525s-67.457-101.706-67.525-162.76c0-260 385.506-470.448 401.923-479.145 4.327-2.326 9.163-3.547 14.077-3.547s9.75 1.221 14.077 3.547c16.417 8.697 401.923 219.145 401.923 479.145-0.066 61.055-24.357 119.589-67.525 162.76s-101.705 67.457-162.76 67.525zM512 125.601c-67.823 39.519-356.571 219.551-356.571 418.97 0.059 45.296 18.079 88.72 50.108 120.749s75.453 50.049 120.749 50.108c72.242 0 132.897-38.48 158.228-100.285 2.239-5.45 6.047-10.111 10.941-13.392s10.653-5.032 16.545-5.032c5.892 0 11.651 1.751 16.545 5.032s8.702 7.942 10.941 13.392c25.332 61.917 85.986 100.285 158.228 100.285 45.293-0.059 88.718-18.079 120.747-50.108s50.052-75.453 50.11-120.749c0-199.123-288.823-379.415-356.571-418.97z" />
<glyph unicode="&#xe92d;" glyph-name="heart-line-2" d="M892.015 732.010c-43.473 43.366-102.353 67.753-163.759 67.828-61.402 0.075-120.341-24.168-163.921-67.428l-52.318-48.6-52.361 48.76c-43.571 43.448-102.616 67.808-164.146 67.722s-120.507-24.612-163.955-68.182c-43.448-43.57-67.808-102.615-67.722-164.145 0.086-61.533 24.612-120.506 68.182-163.954l357.401-362.641c2.978-3.025 6.524-5.423 10.441-7.061 3.913-1.643 8.115-2.483 12.356-2.483 4.245 0 8.448 0.841 12.361 2.483 3.913 1.638 7.462 4.036 10.441 7.061l357.001 362.641c43.477 43.503 67.904 102.494 67.904 163.999s-24.427 120.495-67.904 164zM846.613 448.969l-334.596-339.358-334.802 339.678c-31.508 31.509-49.208 74.244-49.208 118.801 0 44.559 17.701 87.293 49.208 118.8s74.242 49.208 118.8 49.208c44.559 0 87.292-17.701 118.8-49.208l0.8-0.8 74.599-69.4c5.922-5.51 13.713-8.574 21.803-8.574 8.085 0 15.876 3.064 21.798 8.574l75.401 70.2c31.526 31.486 74.274 49.158 118.831 49.129 44.561-0.030 87.283-17.76 118.767-49.289 31.488-31.529 49.161-74.275 49.131-118.833-0.030-44.56-17.762-87.282-49.289-118.766l-0.043-0.162z" />
<glyph unicode="&#xe92e;" glyph-name="hide" d="M229.79 803.733c-2.676 3.017-5.925 5.473-9.557 7.225s-7.577 2.766-11.603 2.982c-4.027 0.217-8.057-0.368-11.857-1.72s-7.292-3.446-10.277-6.158c-2.985-2.712-5.401-5.99-7.109-9.643s-2.675-7.609-2.843-11.638c-0.169-4.030 0.465-8.053 1.862-11.835s3.533-7.251 6.281-10.202l73.295-80.648c-138.362-84.914-197.867-215.809-200.495-221.754-1.733-3.896-2.628-8.114-2.628-12.381s0.895-8.485 2.628-12.381c1.333-3.009 33.6-74.552 105.333-146.286 95.581-95.544 216.305-146.057 349.181-146.057 68.292-0.39 135.89 13.673 198.364 41.257l83.807-92.228c2.677-3.018 5.925-5.471 9.557-7.227 3.633-1.751 7.578-2.765 11.605-2.979 4.028-0.219 8.055 0.366 11.854 1.716 3.799 1.356 7.295 3.447 10.279 6.159s5.403 5.993 7.109 9.645c1.707 3.652 2.677 7.607 2.843 11.639 0.171 4.028-0.463 8.051-1.863 11.835s-3.53 7.251-6.281 10.201l-609.485 670.477zM410.095 514.819l158.742-174.666c-23.903-12.576-51.307-16.857-77.91-12.171s-50.893 18.076-69.060 38.068c-18.167 19.988-29.181 45.446-31.311 72.372s4.742 53.799 19.539 76.396zM512 204.19c-117.257 0-219.695 42.628-304.495 126.669-34.807 34.587-64.411 74.050-87.886 117.141 17.866 33.486 74.895 127.2 180.381 188.114l68.571-75.238c-26.547-34-40.22-76.29-38.601-119.395s18.425-84.256 47.448-116.165c29.023-31.915 68.393-52.541 111.153-58.231 42.758-5.691 86.156 3.916 122.513 27.126l56.115-61.713c-49.523-19.003-102.156-28.599-155.2-28.306zM534.855 567.733c-7.938 1.516-14.955 6.124-19.495 12.811-4.546 6.687-6.247 14.905-4.731 22.846 1.513 7.941 6.126 14.955 12.811 19.499s14.907 6.245 22.845 4.729c38.844-7.53 74.211-27.415 100.825-56.689 26.619-29.274 43.062-66.368 46.87-105.751 0.756-8.046-1.721-16.062-6.88-22.284s-12.576-10.142-20.621-10.893c-0.956-0.059-1.907-0.059-2.857 0-7.617-0.034-14.97 2.789-20.612 7.904-5.642 5.12-9.162 12.166-9.865 19.753-2.565 26.193-13.517 50.86-31.227 70.332-17.705 19.472-41.228 32.709-67.062 37.743zM966.398 435.58c-1.599-3.579-40.19-89.029-127.083-166.858-2.97-2.74-6.456-4.866-10.255-6.251s-7.836-1.999-11.874-1.809c-4.037 0.195-7.997 1.185-11.649 2.921-3.652 1.741-6.919 4.184-9.616 7.197s-4.764 6.529-6.090 10.352c-1.321 3.818-1.872 7.865-1.619 11.898 0.258 4.037 1.312 7.982 3.106 11.6 1.794 3.623 4.291 6.856 7.348 9.504 42.633 38.298 78.443 83.568 105.906 133.866-23.528 43.132-53.194 82.618-88.079 117.219-84.797 83.962-187.236 126.59-304.494 126.59-24.706 0.030-49.373-1.97-73.752-5.981-3.964-0.701-8.029-0.61-11.957 0.269s-7.645 2.527-10.933 4.849c-3.288 2.323-6.084 5.274-8.225 8.684s-3.586 7.209-4.25 11.18c-0.664 3.971-0.535 8.034 0.379 11.954s2.598 7.621 4.951 10.888c2.353 3.267 5.331 6.035 8.76 8.144s7.242 3.519 11.219 4.146c27.702 4.574 55.733 6.854 83.81 6.819 132.877 0 253.601-50.514 349.18-146.095 71.734-71.734 103.999-143.317 105.335-146.325 1.731-3.896 2.628-8.114 2.628-12.381s-0.897-8.485-2.628-12.381h-0.117z" />
<glyph unicode="&#xe92f;" glyph-name="instagram" d="M336.2 937.725h367.201c81.157 0 158.996-32.246 216.392-89.646 57.39-57.4 89.641-135.252 89.651-216.434v-367.294c-0.010-81.183-32.261-159.037-89.651-216.438-57.395-57.395-135.235-89.646-216.392-89.646h-367.201c-81.153 0.015-158.978 32.266-216.362 89.661-57.383 57.4-89.626 135.245-89.638 216.422v367.294c0.012 81.174 32.255 159.020 89.638 216.418s135.209 89.65 216.362 89.662zM703.401 50.068c56.796 0.061 111.252 22.656 151.414 62.828s62.751 94.643 62.807 151.455v367.294c-0.056 56.804-22.641 111.266-62.792 151.437s-94.597 62.771-151.388 62.841h-367.242c-56.797-0.059-111.251-22.653-151.413-62.826s-62.75-94.64-62.809-151.452v-367.294c0.059-56.812 22.647-111.283 62.809-151.455s94.616-62.766 151.413-62.828h367.201zM275.050 448c0 64.941 25.791 127.223 71.7 173.144s108.174 71.719 173.098 71.719c64.927 0 127.191-25.798 173.102-71.719 45.906-45.921 71.7-108.203 71.7-173.144s-25.795-127.227-71.7-173.148c-45.911-45.921-108.175-71.716-173.102-71.716-64.924 0-127.19 25.795-173.098 71.716s-71.7 108.206-71.7 173.148zM366.828 448c0.047-40.581 16.184-79.488 44.872-108.18s67.581-44.836 108.15-44.882c40.561 0.056 79.447 16.205 108.124 44.897s44.805 67.589 44.856 108.165c-0.036 40.574-16.164 79.479-44.846 108.175-28.677 28.696-67.569 44.839-108.134 44.886-40.572-0.035-79.474-16.173-108.163-44.87s-44.823-67.609-44.858-108.191zM782.976 678.587c18.017 0 32.625 14.606 32.625 32.625s-14.607 32.625-32.625 32.625c-18.017 0-32.625-14.607-32.625-32.625s14.607-32.625 32.625-32.625z" />
<glyph unicode="&#xe930;" glyph-name="invoice" d="M858.679 672h-58.679v128c0 8.487-3.371 16.626-9.374 22.627-5.998 6.001-14.139 9.373-22.626 9.373h-512c-8.487 0-16.626-3.371-22.627-9.373s-9.373-14.14-9.373-22.627v-128h-58.68c-55.88 0-101.32-43.080-101.32-96v-320c0-8.487 3.371-16.628 9.373-22.626 6.001-6.002 14.14-9.374 22.627-9.374h128v-128c0-8.487 3.371-16.628 9.373-22.626 6.001-6.002 14.14-9.374 22.627-9.374h512c8.487 0 16.628 3.371 22.626 9.374 6.002 5.998 9.374 14.139 9.374 22.626v128h128c8.487 0 16.628 3.371 22.626 9.374 6.002 5.998 9.374 14.139 9.374 22.626v320c0 52.92-45.438 96-101.321 96zM288 768h448v-96h-448v96zM736 128h-448v192h448v-192zM896 288h-96v64c0 8.487-3.371 16.628-9.374 22.626-5.998 6.002-14.139 9.374-22.626 9.374h-512c-8.487 0-16.626-3.371-22.627-9.374-6.001-5.998-9.373-14.139-9.373-22.626v-64h-96v288c0 17.64 16.76 32 37.32 32h693.359c20.563 0 37.321-14.36 37.321-32v-288zM800 496.002c0-9.496-2.816-18.775-8.090-26.671-5.274-7.893-12.772-14.045-21.543-17.676-8.771-3.635-18.42-4.584-27.731-2.733s-17.865 6.424-24.576 13.139c-6.715 6.711-11.288 15.265-13.139 24.576s-0.902 18.96 2.733 27.731c3.631 8.771 9.783 16.27 17.676 21.543 7.897 5.274 17.176 8.090 26.671 8.090 12.729 0 24.938-5.057 33.938-14.060 9.003-8.999 14.060-21.209 14.060-33.938z" />
<glyph unicode="&#xe932;" glyph-name="lock" d="M816.762 630.857h-121.905v91.429c0 48.497-19.266 95.007-53.555 129.3-34.294 34.292-80.803 53.558-129.302 53.558-48.497 0-95.007-19.265-129.3-53.558s-53.558-80.803-53.558-129.3v-91.429h-121.905c-16.166 0-31.669-6.422-43.1-17.853s-17.853-26.934-17.853-43.1v-426.667c0-16.165 6.422-31.671 17.853-43.101s26.934-17.852 43.1-17.852h609.524c16.165 0 31.671 6.422 43.101 17.852s17.852 26.936 17.852 43.101v426.667c0 16.166-6.422 31.669-17.852 43.1s-26.936 17.853-43.101 17.853zM390.095 722.286c0 32.331 12.843 63.338 35.705 86.2s53.869 35.705 86.2 35.705c32.329 0 63.337-12.843 86.201-35.705 22.86-22.862 35.703-53.869 35.703-86.2v-91.429h-243.81v91.429zM816.762 143.238h-609.524v426.667h609.524v-426.667zM557.714 356.571c0-9.040-2.682-17.881-7.704-25.395-5.022-7.519-12.161-13.38-20.514-16.837-8.353-3.462-17.546-4.369-26.414-2.604s-17.013 6.12-23.406 12.512c-6.393 6.393-10.747 14.536-12.511 23.406s-0.858 18.061 2.601 26.414c3.46 8.353 9.319 15.492 16.837 20.514s16.356 7.704 25.398 7.704c12.122 0 23.752-4.818 32.324-13.39s13.39-20.202 13.39-32.324z" />
<glyph unicode="&#xe933;" glyph-name="manage" d="M794.947 933.053h-565.895c-53.582-0.064-104.951-21.378-142.839-59.266s-59.202-89.257-59.266-142.839v-565.895c0.064-53.582 21.378-104.949 59.266-142.837s89.257-59.203 142.839-59.268h565.895c53.582 0.065 104.949 21.38 142.837 59.268s59.203 89.255 59.268 142.837v565.895c-0.065 53.582-21.38 104.951-59.268 142.839s-89.255 59.202-142.837 59.266v0zM916.211 730.947h-282.947v121.263h161.684c32.159 0 63.003-12.776 85.747-35.517 22.738-22.741 35.517-53.585 35.517-85.746zM471.579 852.211h80.842v-202.105c0-10.72-4.259-21.002-11.839-28.582s-17.862-11.839-28.582-11.839c-10.72 0-21.002 4.259-28.582 11.839s-11.839 17.862-11.839 28.582v202.105zM229.053 852.211h161.684v-121.263h-282.947c0 32.161 12.776 63.005 35.517 85.746s53.585 35.517 85.746 35.517zM794.947 43.789h-565.895c-32.161 0-63.005 12.778-85.746 35.517-22.741 22.744-35.517 53.588-35.517 85.747v485.053h282.947c0-32.161 12.776-63.005 35.517-85.746s53.585-35.517 85.746-35.517c32.161 0 63.003 12.776 85.747 35.517 22.738 22.741 35.517 53.585 35.517 85.746h282.947v-485.053c0-32.159-12.778-63.003-35.517-85.747-22.744-22.738-53.588-35.517-85.747-35.517zM835.368 165.053c0-10.72-4.258-21.003-11.841-28.58-7.578-7.583-17.861-11.841-28.58-11.841h-121.263c-10.72 0-21.003 4.258-28.58 11.841-7.583 7.578-11.841 17.861-11.841 28.58s4.258 21.003 11.841 28.58c7.578 7.583 17.861 11.841 28.58 11.841h121.263c10.72 0 21.003-4.258 28.58-11.841 7.583-7.578 11.841-17.861 11.841-28.58z" />
<glyph unicode="&#xe934;" glyph-name="more" d="M256 421.688c0-70.692-57.308-128-128-128s-128 57.308-128 128c0 70.692 57.308 128 128 128s128-57.308 128-128zM640 421.688c0-70.692-57.308-128-128-128s-128 57.308-128 128c0 70.692 57.308 128 128 128s128-57.308 128-128zM1024 421.688c0-70.692-57.308-128-128-128s-128 57.308-128 128c0 70.692 57.308 128 128 128s128-57.308 128-128z" />
<glyph unicode="&#xe936;" glyph-name="pinstes" d="M512.092 960c-117.523-0.092-231.441-40.602-322.638-114.733s-154.123-177.371-178.222-292.399c-24.098-115.026-7.902-234.844 45.872-339.348 53.774-104.499 141.853-187.325 249.458-234.583-2.194 39.496 0.732 79.068 8.924 117.76l65.828 278.82c-11.122 25.6-16.682 53.274-16.311 81.188 0 75.776 43.959 132.535 98.743 132.535 9.772 0.109 19.455-1.867 28.404-5.795s16.957-9.72 23.49-16.987c6.533-7.268 11.443-15.845 14.403-25.159s3.896-19.153 2.749-28.858c0-47.104-29.841-116.811-45.201-181.835-3.047-12.032-3.229-24.617-0.53-36.736s8.205-23.434 16.073-33.039c7.868-9.6 17.882-17.224 29.228-22.257 11.351-5.033 23.726-7.327 36.127-6.707 96.988 0 162.376 124.636 162.376 272.236 0 112.494-75.484 196.169-213.14 196.169-32.864 1.333-65.658-4.040-96.381-15.79s-58.732-29.633-82.32-52.558c-23.589-22.925-42.263-50.412-54.885-80.787s-18.929-63.002-18.534-95.893c-1.463-36.574 10.532-72.337 33.792-100.574 4.089-3.328 6.996-7.885 8.287-13s0.899-10.506-1.119-15.375c-2.487-9.364-8.046-32.333-10.46-41.329-0.444-2.755-1.543-5.366-3.205-7.613s-3.836-4.060-6.344-5.294c-2.507-1.229-5.273-1.843-8.066-1.787s-5.531 0.783-7.986 2.115c-71.534 29.112-104.887 107.448-104.887 195.438 0 145.554 122.661 320.073 366.008 320.073 195.507 0 324.168-141.531 324.168-293.449 0-200.849-111.688-351.014-276.332-351.014-24.525-0.599-48.809 4.936-70.649 16.097-21.841 11.162-40.55 27.607-54.427 47.831 0 0-29.769-117.76-35.913-140.8-11.851-38.804-29.217-75.704-51.566-109.568 70.418-20.808 144.488-26.23 217.184-15.892 72.699 10.337 142.321 36.188 204.145 75.807 61.829 39.613 114.406 92.063 154.179 153.789 39.767 61.727 65.797 131.282 76.314 203.955 10.522 72.673 5.289 146.755-15.345 217.224s-56.187 135.676-104.238 191.197c-48.056 55.52-107.489 100.055-174.275 130.583-66.78 30.527-139.346 46.333-212.777 46.346z" />
<glyph unicode="&#xe937;" glyph-name="point" d="M746.673 725.25c-11.781 0-21.332-9.552-21.332-21.334v-128c0-11.782 9.551-21.334 21.332-21.334h128c11.785 0 21.336 9.552 21.336 21.334-0.005 82.474-66.863 149.334-149.336 149.334zM746.664 511.913c-35.347 0-64 28.654-64 64v104.49c-81.464-11.588-138.11-87.024-126.525-168.49 11.59-81.466 87.026-138.112 168.49-126.522 65.624 9.332 117.187 60.895 126.525 126.522h-104.49zM589.312 933.974c-2.499 2.030-5.423 3.468-8.555 4.206s-6.391 0.759-9.533 0.059l-554.668-128c-4.738-1.089-8.963-3.764-11.974-7.581s-4.628-8.549-4.582-13.411v-725.336c0.002-5.092 1.827-10.017 5.145-13.885 3.318-3.863 7.91-6.419 12.945-7.191l554.665-85.332c11.646-1.792 22.537 6.195 24.329 17.841 0.163 1.071 0.247 2.15 0.247 3.235v938.668c0.009 3.212-0.707 6.385-2.095 9.281s-3.412 5.441-5.925 7.445zM1002.659 42.584h-426.664c-11.785 0-21.336 9.551-21.336 21.332 0 11.785 9.551 21.336 21.336 21.336h405.332v725.331h-405.332c-11.785 0-21.336 9.552-21.336 21.334s9.551 21.332 21.336 21.332h426.664c11.781 0 21.336-9.552 21.336-21.334v-768c0-11.781-9.551-21.332-21.336-21.332zM874.659 170.58h-298.664c-11.785 0-21.336 9.556-21.336 21.336s9.551 21.332 21.336 21.332h298.664c11.781 0 21.336-9.551 21.336-21.332 0-11.785-9.551-21.336-21.336-21.336zM874.659 298.58h-298.664c-11.785 0-21.336 9.556-21.336 21.336s9.551 21.332 21.336 21.332h298.664c11.781 0 21.336-9.551 21.336-21.332 0-11.785-9.551-21.336-21.336-21.336zM191.993 255.912c-11.782 0-21.334 9.551-21.334 21.336v341.333c0 11.782 9.552 21.334 21.334 21.334h85.334c58.91 0 106.666-47.756 106.666-106.666v-42.664c0-58.913-47.756-106.668-106.666-106.668h-64v-106.664c0-11.79-9.55-21.341-21.334-21.341zM213.327 426.58h64c35.346 0 64 28.653 64 64v42.667c0 35.346-28.654 64-64 64h-64v-170.667z" />
<glyph unicode="&#xe938;" glyph-name="search" d="M918.647 86.643l-200.277 200.239c58.048 69.692 86.993 159.078 80.815 249.57s-47.002 175.115-113.988 236.271c-66.982 61.155-154.961 94.133-245.641 92.072-90.676-2.061-177.069-39.001-241.204-103.136s-101.075-150.528-103.136-241.206c-2.061-90.675 30.916-178.658 92.072-245.641s145.78-107.81 236.271-113.988c90.49-6.178 179.881 22.767 249.572 80.819l200.239-200.282c2.974-2.974 6.502-5.333 10.385-6.942 3.887-1.609 8.051-2.436 12.254-2.436 4.207 0 8.367 0.828 12.254 2.436 3.883 1.609 7.415 3.968 10.385 6.942 2.974 2.974 5.333 6.502 6.942 10.389 1.609 3.883 2.436 8.047 2.436 12.25 0 4.207-0.828 8.371-2.436 12.254s-3.968 7.415-6.942 10.389zM160.009 512c0 56.962 16.891 112.644 48.537 160.006s76.625 84.275 129.251 106.073c52.625 21.798 110.532 27.501 166.4 16.389 55.863-11.113 107.183-38.542 147.46-78.819s67.708-91.594 78.818-147.461c11.115-55.867 5.41-113.775-16.388-166.4s-58.714-97.604-106.074-129.25c-47.36-31.646-103.044-48.538-160.004-48.538-76.356 0.085-149.56 30.455-203.552 84.446-53.992 53.995-84.362 127.198-84.447 203.554z" />
<glyph unicode="&#xe93b;" glyph-name="settings" d="M512 609.684c-31.978 0-63.238-9.483-89.827-27.249s-47.312-43.018-59.55-72.562c-12.237-29.544-15.439-62.053-9.2-93.418 6.238-31.361 21.637-60.173 44.249-82.782 22.612-22.614 51.422-38.012 82.785-44.253 31.364-6.236 63.873-3.034 93.42 9.205 29.54 12.234 54.795 32.957 72.558 59.548 17.769 26.586 27.249 57.851 27.249 89.826 0 42.881-17.036 84.006-47.357 114.328s-71.446 47.356-114.327 47.356zM512 367.158c-15.989 0-31.619 4.743-44.913 13.625s-23.657 21.509-29.775 36.282c-6.119 14.77-7.719 31.025-4.6 46.707s10.819 30.086 22.125 41.392c11.306 11.306 25.71 19.005 41.393 22.125s31.936 1.518 46.708-4.6c14.772-6.119 27.398-16.48 36.28-29.775s13.625-28.925 13.625-44.914c0-21.44-8.515-42.006-23.676-57.166-15.163-15.161-35.725-23.676-57.166-23.676zM887.679 371.2l-17.947 10.348c8.079 43.96 8.079 89.025 0 132.985l17.947 10.348c13.802 7.962 25.896 18.565 35.603 31.202 9.701 12.638 16.821 27.063 20.949 42.452 4.134 15.389 5.19 31.441 3.115 47.238s-7.243 31.032-15.204 44.833c-7.96 13.801-18.567 25.899-31.205 35.603-12.633 9.704-27.061 16.823-42.447 20.952-15.392 4.129-31.442 5.186-47.239 3.111-15.802-2.074-31.033-7.24-44.835-15.203l-17.99-10.388c-33.97 29.026-73.011 51.527-115.157 66.371v20.736c0 32.161-12.778 63.005-35.517 85.746-22.744 22.741-53.586 35.517-85.747 35.517s-63.005-12.776-85.746-35.517c-22.741-22.741-35.517-53.585-35.517-85.746v-20.736c-42.144-14.898-81.171-37.454-115.119-66.533l-18.068 10.469c-27.873 16.081-60.992 20.43-92.072 12.091s-57.574-28.682-73.655-56.554c-16.080-27.873-20.43-60.992-12.091-92.072s28.682-57.574 56.554-73.655l17.947-10.348c-8.079-43.96-8.079-89.025 0-132.985l-17.947-10.348c-27.873-16.082-48.216-42.577-56.554-73.653-8.338-31.081-3.989-64.199 12.091-92.074s42.575-48.214 73.655-56.557c31.079-8.338 64.199-3.988 92.072 12.094l17.987 10.391c33.985-29.033 73.040-51.534 115.2-66.371v-20.739c0-32.159 12.776-63.003 35.517-85.747 22.741-22.738 53.585-35.517 85.746-35.517s63.003 12.778 85.747 35.517c22.738 22.744 35.517 53.588 35.517 85.747v20.739c42.146 14.897 81.171 37.451 115.119 66.533l18.066-10.434c27.874-16.077 60.993-20.426 92.074-12.089s57.576 28.683 73.653 56.552c16.082 27.874 20.431 60.993 12.094 92.074s-28.683 57.576-56.557 73.658l-0.038-0.043zM784.686 523.83c13.689-49.599 13.689-101.98 0-151.579-2.393-8.634-1.843-17.818 1.547-26.107 3.395-8.289 9.448-15.214 17.209-19.688l43.816-25.309c9.291-5.357 16.066-14.19 18.847-24.549 2.776-10.359 1.326-21.396-4.031-30.682-5.363-9.291-14.19-16.071-24.549-18.847-10.359-2.781-21.396-1.331-30.688 4.031l-43.897 25.384c-7.766 4.495-16.804 6.284-25.697 5.077s-17.128-5.341-23.417-11.744c-35.975-36.729-81.3-62.938-131.083-75.792-8.688-2.237-16.389-7.297-21.884-14.385-5.496-7.093-8.477-15.813-8.472-24.781v-50.65c0-10.72-4.258-21.003-11.839-28.58-7.58-7.583-17.861-11.841-28.582-11.841s-21.001 4.258-28.582 11.841c-7.58 7.578-11.839 17.861-11.839 28.58v50.607c0.005 8.973-2.976 17.688-8.472 24.781s-13.195 12.153-21.884 14.39c-49.785 12.902-95.097 39.165-131.045 75.948-6.284 6.408-14.521 10.536-23.413 11.744s-17.933-0.577-25.698-5.077l-43.816-25.341c-4.599-2.695-9.685-4.457-14.967-5.179s-10.654-0.393-15.808 0.97c-5.153 1.364-9.987 3.735-14.221 6.969-4.235 3.239-7.787 7.281-10.452 11.9s-4.391 9.717-5.079 14.999c-0.687 5.287-0.322 10.66 1.075 15.802 1.396 5.147 3.797 9.965 7.063 14.174 3.266 4.215 7.333 7.739 11.967 10.375l43.816 25.304c7.759 4.479 13.811 11.404 17.206 19.693s3.94 17.473 1.549 26.107c-13.688 49.597-13.688 101.977 0 151.576 2.347 8.615 1.776 17.764-1.624 26.019s-9.438 15.154-17.171 19.616l-43.816 25.304c-9.289 5.36-16.068 14.191-18.846 24.55s-1.328 21.397 4.032 30.686c5.36 9.289 14.191 16.068 24.55 18.846s21.397 1.328 30.686-4.032l43.897-25.384c7.744-4.508 16.766-6.314 25.649-5.136s17.122 5.274 23.423 11.644c35.979 36.729 81.304 62.935 131.085 75.789 8.716 2.241 16.435 7.326 21.934 14.45s8.463 15.88 8.422 24.879v50.607c0 10.72 4.259 21.002 11.839 28.582s17.862 11.839 28.582 11.839c10.721 0 21.002-4.259 28.582-11.839s11.839-17.862 11.839-28.582v-50.607c-0.004-8.972 2.976-17.69 8.472-24.781 5.498-7.091 13.194-12.153 21.882-14.387 49.804-12.9 95.13-39.163 131.088-75.951 6.284-6.405 14.519-10.537 23.412-11.745s17.936 0.578 25.697 5.075l43.816 25.344c4.603 2.696 9.69 4.455 14.972 5.178 5.276 0.722 10.65 0.393 15.807-0.97 5.152-1.362 9.987-3.731 14.217-6.969 4.236-3.238 7.788-7.282 10.456-11.898 2.662-4.617 4.387-9.715 5.077-15.001 0.684-5.287 0.323-10.656-1.073-15.801-1.401-5.144-3.8-9.962-7.066-14.175s-7.335-7.738-11.97-10.373l-43.816-25.304c-7.718-4.475-13.738-11.378-17.122-19.632s-3.945-17.397-1.59-26.003v0.040z" />
<glyph unicode="&#xe93c;" glyph-name="sign-out" d="M790.905 933.097h-557.811c-54.123 0.485-106.227-20.524-144.876-58.415s-60.685-89.569-61.272-143.69v-121.263c0-10.72 4.259-21.001 11.839-28.582s17.862-11.839 28.582-11.839c10.72 0 21.002 4.259 28.582 11.839s11.839 17.862 11.839 28.582v121.263c0.574 32.685 14.089 63.807 37.58 86.54s55.039 35.22 87.726 34.723h557.811c32.687 0.497 64.237-11.99 87.724-34.723 23.493-22.733 37.004-53.855 37.581-86.54v-565.896c-0.577-32.682-14.088-63.806-37.581-86.539-23.487-22.733-55.037-35.22-87.724-34.724h-557.811c-32.686-0.496-64.234 11.992-87.726 34.724s-37.006 53.857-37.58 86.539v121.263c0 10.72-4.259 21.003-11.839 28.586-7.58 7.578-17.862 11.835-28.582 11.835s-21.002-4.258-28.582-11.835c-7.58-7.583-11.839-17.866-11.839-28.586v-121.263c0.587-54.121 22.623-105.795 61.272-143.689s90.753-58.902 144.876-58.417h557.811c54.121-0.485 106.227 20.523 144.874 58.417s60.685 89.568 61.273 143.689v565.896c-0.587 54.122-22.625 105.8-61.273 143.69s-90.753 58.9-144.874 58.415zM148.211 448.036c0-10.72 4.259-21.002 11.839-28.584 7.58-7.578 17.862-11.835 28.582-11.835l533.073 1.213-174.74-174.743c-3.86-3.73-6.94-8.187-9.059-13.118s-3.233-10.235-3.28-15.603c-0.046-5.368 0.976-10.693 3.008-15.656 2.032-4.969 5.034-9.485 8.829-13.28s8.308-6.796 13.276-8.828c4.968-2.032 10.29-3.056 15.657-3.007 5.368 0.043 10.671 1.159 15.603 3.277 4.931 2.123 9.394 5.201 13.123 9.060l185.371 185.371c22.733 22.744 35.5 53.582 35.5 85.734 0 32.155-12.768 62.993-35.5 85.733l-185.29 185.371c-7.626 7.363-17.839 11.438-28.435 11.345-10.598-0.092-20.737-4.343-28.231-11.838s-11.746-17.632-11.838-28.231c-0.092-10.598 3.982-20.809 11.345-28.432l172.277-172.315-530.691-1.213c-10.72 0-21.002-4.259-28.582-11.839s-11.839-17.862-11.839-28.582z" />
<glyph unicode="&#xe93d;" glyph-name="speak" d="M479.977 803.6c16.566 0 29.999 13.432 29.999 30v96.4c0 16.568-13.433 30-29.999 30-16.569 0-30.001-13.432-30.001-30v-96.4c0-16.568 13.432-30 30.001-30zM773.855 699.456l68.157 68.154c27.062 29.12-13.27 69.504-42.426 42.426l-68.152-68.154c-27.062-29.12 13.261-69.504 42.422-42.426zM961.974 477.999h-96.396c-39.727-1.457-39.764-58.526 0-59.997h96.396c39.727 1.457 39.768 58.526 0 59.997zM808.504 584.072c4.543-10.962 19.949-24.212 39.201-16.23l89.060 36.904c36.143 16.554 14.331 69.294-22.97 55.43l-89.060-36.904c-15.304-6.344-22.57-23.894-16.23-39.2zM616.048 776.532c19.014-7.882 34.621 5.18 39.201 16.23l36.906 89.058c6.339 15.306-0.926 32.856-16.23 39.2-15.304 6.342-32.856-0.924-39.201-16.23l-36.906-89.058c-6.344-15.308 0.926-32.856 16.23-39.2zM340.522 822.68c-16.528 16.9-46.256 7.908-50.63-15.33l-80.476-402.381 227.528-227.528 402.382 80.477c5.325 1.061 10.259 3.551 14.28 7.205 4.022 3.649 6.973 8.318 8.55 13.517 1.573 5.194 1.704 10.724 0.386 15.988-1.322 5.269-4.049 10.077-7.889 13.917l-514.132 514.135zM67.632 35.663c38.348-38.367 95.608-45.349 140.94-21.942l-162.894 162.9c-23.612-45.652-16.040-102.982 21.954-140.958zM408.658 120.874l-111.19-111.192 64.894-64.898c11.704-11.706 30.71-11.715 42.426 0l68.766 68.766c11.715 11.715 11.715 30.711 0 42.426l-64.896 64.898zM83.998 223.116l111.174 111.174 170.932-170.934-111.174-111.174-170.932 170.934z" />
<glyph unicode="&#xe93e;" glyph-name="star" d="M655.896 566.738c-11.313 0-23.323 8.732-26.827 19.491l-110.737 340.796c-3.505 10.761-9.16 10.761-12.665 0l-110.716-340.796c-3.505-10.761-15.514-19.491-26.828-19.491h-358.34c-11.313 0-13.076-5.39-3.916-12.052l289.887-210.59c9.16-6.662 13.752-20.781 10.246-31.542l-110.714-340.778c-3.504-10.76 1.087-14.1 10.247-7.436l289.887 210.586c9.16 6.662 24.001 6.662 33.161 0l289.886-210.609c9.161-6.664 13.753-3.324 10.248 7.444l-110.716 340.773c-3.505 10.761 1.086 24.882 10.246 31.543l289.887 210.589c9.161 6.662 7.396 12.052-3.915 12.052l-358.32 0.020z" />
<glyph unicode="&#xe93f;" glyph-name="step-1" d="M405.333 320h-255.999c-5.658 0-11.084 2.248-15.085 6.249s-6.248 9.427-6.248 15.084c0 5.659 2.248 11.086 6.248 15.086s9.427 6.249 15.085 6.249h255.999c5.659 0 11.086-2.248 15.086-6.249s6.249-9.427 6.249-15.086c0-5.656-2.248-11.084-6.249-15.084s-9.427-6.249-15.086-6.249zM362.667 192h-213.334c-5.658 0-11.084 2.248-15.085 6.249s-6.248 9.427-6.248 15.084c0 5.659 2.248 11.086 6.248 15.086s9.427 6.249 15.085 6.249h213.334c5.656 0 11.084-2.248 15.084-6.249s6.249-9.427 6.249-15.086c0-5.656-2.248-11.084-6.249-15.084s-9.427-6.249-15.084-6.249zM362.667 661.333c-47.062 0-85.335 38.273-85.335 85.334s38.273 85.333 85.335 85.333c47.062 0 85.333-38.272 85.333-85.333s-38.271-85.334-85.333-85.334zM362.667 789.333c-23.51 0-42.667-19.157-42.667-42.667s19.158-42.667 42.667-42.667c23.51 0 42.665 19.158 42.665 42.667s-19.155 42.667-42.665 42.667zM512 448c-5.659 0-11.084 2.248-15.084 6.249-4.003 4-6.249 9.427-6.249 15.084v42.667c0 35.286-28.714 64-64 64h-128c-35.286 0-64-28.714-64-64v-42.667c0-5.656-2.248-11.084-6.249-15.084s-9.427-6.249-15.086-6.249c-5.658 0-11.084 2.248-15.085 6.249s-6.248 9.427-6.248 15.084v42.667c0 58.795 47.872 106.667 106.667 106.667h128c58.793 0 106.665-47.872 106.665-106.667v-42.667c0-5.656-2.246-11.084-6.249-15.084-4-4-9.425-6.249-15.084-6.249zM405.333 64h-298.666c-28.279 0.033-55.391 11.282-75.387 31.279s-31.246 47.108-31.279 75.389v682.666c0 58.795 47.872 106.667 106.667 106.667h512.001c58.793 0 106.665-47.872 106.665-106.667v-258.561c0-5.656-2.246-11.084-6.249-15.084-4-4-9.425-6.249-15.084-6.249s-11.084 2.248-15.084 6.249c-4.003 4-6.249 9.427-6.249 15.084v258.561c0 35.285-28.714 64-64 64h-512.001c-35.285 0-64-28.715-64-64v-682.666c0-35.286 28.715-64 64-64h298.666c5.659 0 11.086-2.248 15.086-6.249s6.249-9.427 6.249-15.086c0-5.656-2.248-11.084-6.249-15.084s-9.427-6.249-15.086-6.249zM746.638-64c-152.919 0-277.335 124.416-277.335 277.333s124.416 277.333 277.335 277.333c152.917 0 277.333-124.416 277.333-277.333s-124.416-277.333-277.333-277.333zM746.638 448c-129.409 0-234.667-105.261-234.667-234.667 0-129.409 105.258-234.667 234.667-234.667 129.407 0 234.665 105.258 234.665 234.667 0 129.407-105.258 234.667-234.665 234.667zM703.991 106.665c-5.656 0.013-11.081 2.251-15.104 6.231l-85.333 85.333c-3.887 4.023-6.037 9.412-5.988 15.006s2.293 10.943 6.246 14.899c3.956 3.956 9.307 6.2 14.901 6.249 5.592 0.049 10.981-2.101 15.004-5.988l69.207-69.205 134.313 153.513c3.729 4.261 8.998 6.865 14.648 7.241 5.648 0.376 11.215-1.507 15.476-5.236s6.865-8.998 7.241-14.645c0.376-5.65-1.507-11.217-5.236-15.478l-149.333-170.665c-1.926-2.199-4.283-3.978-6.925-5.225-2.642-1.249-5.514-1.939-8.435-2.030h-0.683z" />
<glyph unicode="&#xe940;" glyph-name="step-2" d="M917.333 64h-810.666c-28.28 0.033-55.391 11.282-75.387 31.279s-31.246 47.108-31.279 75.389v554.665c0 58.795 47.872 106.667 106.667 106.667h810.666c58.795 0 106.667-47.872 106.667-106.667v-554.665c0-58.795-47.872-106.667-106.667-106.667zM106.667 789.333c-35.285 0-64-28.715-64-64.001v-554.665c0-35.286 28.715-64 64-64h810.666c35.286 0 64 28.714 64 64v554.665c0 35.286-28.714 64.001-64 64.001h-810.666zM320 448c-58.795 0-106.667 47.872-106.667 106.667s47.871 106.667 106.667 106.667c58.795 0 106.667-47.872 106.667-106.667s-47.872-106.667-106.667-106.667zM320 618.667c-35.286 0-64-28.714-64-64s28.714-64 64-64c35.286 0 64 28.714 64 64s-28.714 64-64 64zM490.667 234.667c-5.659 0-11.086 2.248-15.086 6.249s-6.249 9.427-6.249 15.084v42.667c0 35.286-28.714 64-64 64h-170.665c-35.286 0-64.001-28.714-64.001-64v-42.667c0-5.656-2.248-11.084-6.248-15.084s-9.427-6.249-15.085-6.249c-5.658 0-11.084 2.248-15.085 6.249s-6.248 9.427-6.248 15.084v42.667c0 58.795 47.872 106.667 106.667 106.667h170.665c58.795 0 106.667-47.872 106.667-106.667v-42.667c0-5.656-2.248-11.084-6.249-15.084s-9.427-6.249-15.084-6.249zM874.667 576h-256c-5.659 0-11.086 2.248-15.086 6.249-4 4.003-6.249 9.427-6.249 15.086 0 5.656 2.248 11.084 6.249 15.084s9.427 6.249 15.086 6.249h256c5.656 0 11.084-2.248 15.084-6.249s6.249-9.427 6.249-15.084c0-5.659-2.248-11.084-6.249-15.086-4-4-9.427-6.249-15.084-6.249zM874.667 405.335h-256c-5.659 0-11.086 2.246-15.086 6.249-4 4-6.249 9.425-6.249 15.084s2.248 11.084 6.249 15.086c4 4 9.427 6.246 15.086 6.246h256c5.656 0 11.084-2.246 15.084-6.246 4-4.003 6.249-9.427 6.249-15.086s-2.248-11.084-6.249-15.084c-4-4.003-9.427-6.249-15.084-6.249zM874.667 234.667h-256c-5.659 0-11.086 2.248-15.086 6.249s-6.249 9.427-6.249 15.084c0 5.659 2.248 11.086 6.249 15.086s9.427 6.249 15.086 6.249h256c5.656 0 11.084-2.248 15.084-6.249s6.249-9.427 6.249-15.086c0-5.656-2.248-11.084-6.249-15.084s-9.427-6.249-15.084-6.249z" />
<glyph unicode="&#xe941;" glyph-name="step-3" d="M384 960c-211.776 0-384-172.224-384-384 0-266.175 346.624-615.871 361.345-630.655 6.022-5.986 14.165-9.345 22.655-9.345s16.633 3.359 22.655 9.345c0 0 28.16 28.095 68.034 73.919 11.647 13.312 10.24 33.536-3.072 45.183-13.25 11.52-33.409 10.175-45.185-3.072-16.767-19.2-31.359-35.199-42.431-47.039-76.415 81.664-320 358.335-320 561.664 0 176.448 143.552 320 320 320s320-143.552 320-320c0-9.151-0.512-18.879-2.113-28.607-2.943-17.408 8.769-33.921 26.241-36.864 17.217-2.751 33.983 8.831 36.864 26.239 2.239 13.312 3.007 26.624 3.007 39.233 0 211.776-172.223 384-384 384zM361.345-54.655l-7.889-7.854 0.042-0.042 7.847 7.896zM384-64v0zM406.655-54.655l7.847-7.896 0.016 0.016-7.863 7.88zM474.689 19.265l-8.377 7.328-0.020-0.022 8.397-7.306zM471.617 64.447l7.328 8.377-0.024 0.022-7.304-8.399zM426.431 61.375l-8.319 7.395-0.065-0.073 8.383-7.322zM384 14.336l-8.127-7.604 8.13-8.688 8.127 8.691-8.13 7.602zM701.887 547.393l10.975-1.857 0.009 0.049-10.984 1.808zM728.129 510.529l-1.85-10.977 0.093-0.016 1.756 10.992zM764.993 536.767l-10.977 1.848-0.004-0.031 10.981-1.816zM384 971.13c-217.923 0-395.13-177.207-395.13-395.13h22.261c0 205.629 167.241 372.87 372.87 372.87v22.261zM-11.13 576c0-68.806 22.353-142.249 55.426-213.444 33.123-71.299 77.334-141.054 121.833-202.672 88.995-123.236 179.799-214.833 187.327-222.393l15.776 15.705c-7.192 7.224-97.060 97.868-185.057 219.719-43.997 60.926-87.362 129.427-119.691 199.019-32.379 69.699-53.354 139.783-53.354 204.065h-22.261zM353.498-62.551c8.107-8.056 19.073-12.58 30.502-12.58v22.261c-5.55 0-10.874 2.197-14.81 6.108l-15.692-15.79zM384-75.13c11.429 0 22.394 4.523 30.502 12.58l-15.692 15.79c-3.936-3.911-9.261-6.108-14.81-6.108v-22.261zM406.655-54.655c7.863-7.88 7.863-7.88 7.865-7.88 0 0.002 0 0.002 0 0.002 0.002 0.002 0.004 0.004 0.007 0.007 0.004 0.004 0.011 0.011 0.018 0.018 0.016 0.016 0.040 0.038 0.069 0.069 0.058 0.058 0.145 0.145 0.258 0.258 0.225 0.225 0.554 0.559 0.988 0.997 0.866 0.877 2.141 2.173 3.793 3.867 3.301 3.39 8.11 8.379 14.165 14.801 12.112 12.845 29.22 31.435 49.268 54.475l-16.794 14.612c-19.826-22.784-36.733-41.154-48.669-53.816-5.968-6.329-10.694-11.228-13.917-14.539-1.612-1.654-2.847-2.912-3.677-3.751-0.414-0.419-0.728-0.735-0.935-0.942-0.102-0.105-0.18-0.183-0.229-0.232-0.024-0.024-0.045-0.045-0.056-0.056-0.004-0.004-0.009-0.009-0.011-0.011s-0.002-0.002-0.002-0.002 0 0 0 0 0 0 7.86-7.878zM483.065 11.934c15.721 17.967 13.791 45.221-4.12 60.89l-14.659-16.754c8.715-7.624 9.601-20.821 2.026-29.478l16.754-14.659zM478.92 72.846c-17.902 15.567-45.025 13.679-60.808-4.076l16.638-14.79c7.769 8.742 20.968 9.541 29.562 2.068l14.608 16.798zM418.048 68.697c-16.68-19.1-31.187-35.005-42.178-46.759l16.259-15.204c11.153 11.927 25.832 28.020 42.685 47.32l-16.767 14.643zM392.127 21.94c-38.019 40.631-117.571 129.723-187.546 233.813-70.343 104.637-129.451 222.197-129.451 320.247h-22.261c0-105.278 62.685-227.718 133.237-332.666 70.919-105.492 151.368-195.568 189.766-236.602l16.255 15.209zM75.13 576c0 170.301 138.569 308.87 308.87 308.87v22.261c-182.595 0-331.13-148.535-331.13-331.13h22.261zM384 884.87c170.3 0 308.87-138.569 308.87-308.87h22.261c0 182.595-148.536 331.13-331.13 331.13v-22.261zM692.87 576c0-8.76-0.492-17.849-1.963-26.802l21.965-3.613c1.727 10.503 2.259 20.87 2.259 30.415h-22.261zM690.913 549.249c-3.969-23.472 11.827-45.731 35.366-49.697l3.7 21.951c-11.406 1.923-19.035 12.686-17.116 24.033l-21.949 3.713zM726.372 499.536c23.056-3.684 45.688 11.763 49.602 35.415l-21.963 3.633c-1.848-11.162-12.751-18.884-24.126-17.065l-3.513-21.983zM775.967 534.922c2.371 14.080 3.163 28.035 3.163 41.078h-22.261c0-12.174-0.744-24.843-2.854-37.385l21.951-3.693zM779.13 576c0 217.923-177.208 395.13-395.13 395.13v-22.261c205.628 0 372.87-167.241 372.87-372.87h22.261zM197.565 576c0 102.783 83.652 186.435 186.435 186.435s186.435-83.652 186.435-186.435c0-102.783-83.652-186.435-186.435-186.435s-186.435 83.652-186.435 186.435zM250.435 576c0-73.666 59.9-133.565 133.565-133.565s133.565 59.9 133.565 133.565c0 73.666-59.9 133.565-133.565 133.565s-133.565-59.9-133.565-133.565zM517.565 192c0 138.111 112.324 250.435 250.435 250.435s250.435-112.324 250.435-250.435c0-138.111-112.324-250.435-250.435-250.435s-250.435 112.324-250.435 250.435zM570.435 192c0-108.929 88.636-197.565 197.565-197.565s197.565 88.636 197.565 197.565c0 108.929-88.636 197.565-197.565 197.565s-197.565-88.636-197.565-197.565zM732.104 169.312l3.936-3.936 109.267 109.334c0.002 0.002 0.004 0.004 0.007 0.007 10.365 10.305 27.196 10.253 37.51-0.060 10.307-10.307 10.307-27.071 0-37.378l-127.98-127.98c-0.002-0.002-0.007-0.007-0.009-0.009-5.198-5.138-11.965-7.725-18.733-7.725-6.796 0-13.548 2.542-18.719 7.713l-64 64c-10.307 10.307-10.307 27.071 0 37.378 10.305 10.307 27.069 10.307 37.376 0l41.345-41.345z" />
<glyph unicode="&#xe942;" glyph-name="step-4" d="M341.333 362.665c-105.855 0-191.999 86.145-191.999 192 0 105.857 86.144 192.001 191.999 192.001 105.857 0 192-86.144 192-192.001 0-105.855-86.143-192-192-192zM341.333 704c-82.345 0-149.333-66.987-149.333-149.335 0-82.345 66.987-149.333 149.333-149.333s149.335 66.987 149.335 149.333c0 82.347-66.987 149.335-149.335 149.335zM661.333-64h-639.999c-5.658 0-11.084 2.246-15.085 6.246-4.001 4.003-6.248 9.427-6.248 15.086v170.667c0 82.345 66.987 149.333 149.333 149.333h383.999c82.347 0 149.335-66.987 149.335-149.333v-170.667c0-5.659-2.248-11.084-6.249-15.086-4-4-9.427-6.246-15.086-6.246zM42.667-21.335h597.333v149.335c0 58.793-47.872 106.665-106.667 106.665h-383.999c-28.279-0.033-55.391-11.282-75.387-31.279s-31.245-47.108-31.279-75.386v-149.335zM768 618.665c-35.286 0-64 28.714-64 64s28.714 64.001 64 64.001c35.286 0 64-28.715 64-64.001s-28.714-64-64-64zM768 704c-5.659 0-11.084-2.248-15.084-6.249-4.003-4.003-6.249-9.427-6.249-15.086 0-5.656 2.246-11.084 6.249-15.084 4-4 9.425-6.249 15.084-6.249s11.084 2.248 15.084 6.249c4.003 4 6.249 9.427 6.249 15.084 0 5.659-2.246 11.084-6.249 15.086-4 4-9.425 6.249-15.084 6.249zM874.667 448c-5.659 0-11.086 2.246-15.086 6.246-4 4.003-6.249 9.427-6.249 15.086v21.333c0 23.51-19.158 42.667-42.665 42.667h-85.335c-23.507 0-42.665-19.158-42.665-42.667v-21.333c0-5.659-2.248-11.084-6.249-15.086-4-4-9.427-6.246-15.086-6.246-5.656 0-11.084 2.246-15.084 6.246-4 4.003-6.249 9.427-6.249 15.086v21.333c0 47.062 38.271 85.335 85.333 85.335h85.335c47.062 0 85.333-38.273 85.333-85.335v-21.333c0-5.659-2.248-11.084-6.249-15.086-4-4-9.427-6.246-15.084-6.246zM917.333 149.333h-128c-5.656 0-11.084 2.248-15.084 6.249s-6.249 9.427-6.249 15.086c0 5.656 2.248 11.084 6.249 15.084s9.427 6.249 15.084 6.249h128c35.286 0 64 28.714 64 64v597.333c0 35.285-28.714 64-64 64h-298.665c-35.286 0-64-28.715-64-64v-70.4c0-5.658-2.248-11.084-6.249-15.085s-9.427-6.248-15.086-6.248c-5.656 0-11.084 2.248-15.084 6.248s-6.249 9.427-6.249 15.085v70.4c0 58.795 47.872 106.667 106.667 106.667h298.665c58.795 0 106.667-47.872 106.667-106.667v-597.333c0-58.795-47.872-106.667-106.667-106.667zM1002.683 277.333h-279.042c-5.656 0-11.084 2.248-15.084 6.249s-6.249 9.427-6.249 15.084c0 5.659 2.248 11.086 6.249 15.086s9.427 6.249 15.084 6.249h279.042c5.656 0 11.084-2.248 15.084-6.249s6.249-9.427 6.249-15.086c0-5.656-2.248-11.084-6.249-15.084s-9.427-6.249-15.084-6.249zM486.286 551.126c-50.688 0-87.254 34.431-106.198 57.642-95.317-73.387-208.042-54.657-213.119-53.802-5.579 0.977-10.54 4.132-13.793 8.769s-4.53 10.378-3.551 15.957c0.979 5.579 4.134 10.538 8.771 13.793 4.637 3.252 10.376 4.53 15.955 3.551 1.067-0.171 112.427-18.176 195.157 58.582 2.353 2.157 5.156 3.764 8.208 4.699s6.275 1.178 9.432 0.706c3.159-0.47 6.171-1.641 8.818-3.424 2.647-1.785 4.862-4.138 6.482-6.888 1.705-2.903 42.325-70.701 103.978-54.145 2.702 0.73 5.525 0.924 8.301 0.563 2.778-0.358 5.458-1.26 7.887-2.656 2.429-1.394 4.559-3.255 6.269-5.472s2.967-4.75 3.698-7.455c0.732-2.702 0.924-5.523 0.563-8.301-0.358-2.778-1.26-5.458-2.656-7.887-1.394-2.429-3.255-4.557-5.472-6.269-2.217-1.71-4.75-2.965-7.455-3.698-10.191-2.794-20.707-4.23-31.274-4.265z" />
<glyph unicode="&#xe943;" glyph-name="text" d="M854.639 630.64l-224 224c-2.974 2.971-6.502 5.327-10.389 6.932-3.883 1.606-8.047 2.431-12.25 2.428h-384c-16.974 0-33.253-6.743-45.255-18.745s-18.745-28.281-18.745-45.255v-704c0-16.973 6.743-33.254 18.745-45.257s28.281-18.743 45.255-18.743h576c16.973 0 33.254 6.741 45.257 18.743s18.743 28.284 18.743 45.257v512c0.004 4.204-0.823 8.367-2.428 12.251s-3.959 7.415-6.933 10.388zM640 754.76l114.761-114.76h-114.761v114.76zM800 96h-576v704h352v-192c0-8.487 3.371-16.626 9.374-22.627 5.999-6.001 14.14-9.373 22.626-9.373h192v-480z" />
<glyph unicode="&#xe944;" glyph-name="think" d="M512 864c-82.278 0-162.706-24.398-231.117-70.109s-121.731-110.681-153.216-186.695c-31.486-76.013-39.724-159.657-23.673-240.352s55.671-154.82 113.85-213.001c58.179-58.18 132.303-97.801 213-113.852 80.695-16.051 164.339-7.812 240.354 23.676 76.011 31.484 140.983 84.804 186.692 153.216 45.713 68.412 70.11 148.838 70.11 231.117-0.115 110.294-43.981 216.038-121.971 294.028s-183.735 121.856-294.029 121.972zM512 96c-69.619 0-137.674 20.646-195.561 59.324s-103.003 93.653-129.645 157.973c-26.642 64.32-33.613 135.095-20.031 203.375s47.107 131.002 96.335 180.23 111.949 82.753 180.23 96.335c68.284 13.582 139.059 6.611 203.375-20.031 64.32-26.642 119.296-71.759 157.973-129.645s59.324-125.941 59.324-195.561c-0.107-93.325-37.227-182.797-103.215-248.785s-155.46-103.108-248.785-103.215zM576 256c0-8.486-3.371-16.627-9.374-22.626-5.999-6.003-14.14-9.374-22.626-9.374-16.973 0-33.254 6.741-45.257 18.743s-18.743 28.284-18.743 45.257v160c-8.486 0-16.627 3.371-22.626 9.374-6.003 5.999-9.374 14.14-9.374 22.626s3.371 16.627 9.374 22.626c5.999 6.003 14.14 9.374 22.626 9.374 16.973 0 33.254-6.741 45.257-18.743s18.743-28.284 18.743-45.257v-160c8.486 0 16.627-3.371 22.626-9.374 6.003-5.999 9.374-14.14 9.374-22.626zM448 624c0 9.493 2.816 18.774 8.090 26.668s12.77 14.046 21.542 17.679c8.772 3.633 18.423 4.584 27.733 2.732s17.865-6.423 24.576-13.136c6.711-6.713 11.285-15.266 13.137-24.577s0.9-18.962-2.731-27.733c-3.635-8.771-9.788-16.268-17.681-21.542s-17.173-8.090-26.667-8.090c-12.732 0-24.939 5.057-33.941 14.059s-14.059 21.211-14.059 33.941z" />
<glyph unicode="&#xe945;" glyph-name="top" d="M511.823 925.283c-193.212 0-349.841-156.629-349.841-349.842s156.629-349.841 349.841-349.841c193.212 0 349.839 156.628 349.839 349.841s-156.626 349.842-349.839 349.842zM525.656 759.822l46.607-93.757c1.042-2.372 2.695-4.424 4.79-5.947s4.556-2.463 7.133-2.724l103.512-15.716c2.959-0.386 5.747-1.605 8.039-3.517s3.992-4.436 4.902-7.278c0.909-2.843 0.991-5.885 0.235-8.772s-2.318-5.499-4.504-7.53l-76.415-72.621c-1.139-2.174-1.735-4.591-1.735-7.045s0.595-4.872 1.735-7.045l14.633-102.97c0.624-2.976 0.371-6.070-0.727-8.905s-2.997-5.291-5.464-7.070c-2.466-1.779-5.396-2.803-8.434-2.95s-6.053 0.592-8.679 2.124l-92.131 48.775c-2.385 1.077-4.97 1.634-7.587 1.634s-5.203-0.557-7.587-1.634l-92.131-48.775c-2.627-1.533-5.642-2.271-8.679-2.124s-5.967 1.171-8.434 2.95c-2.467 1.778-4.365 4.234-5.464 7.070s-1.351 5.929-0.727 8.905l17.342 102.97c0.745 2.389 0.889 4.927 0.416 7.386s-1.546 4.762-3.125 6.704l-76.415 73.163c-2.027 2.053-3.45 4.625-4.112 7.433s-0.539 5.744 0.356 8.487c0.896 2.742 2.529 5.186 4.721 7.062s4.858 3.113 7.706 3.574l103.512 15.174c2.577 0.261 5.038 1.201 7.133 2.725s3.747 3.575 4.79 5.947l46.607 93.757c1.247 2.654 3.212 4.906 5.672 6.502s5.319 2.471 8.25 2.528c2.932 0.056 5.821-0.709 8.342-2.209s4.57-3.675 5.918-6.278zM873.868 333.989c-58.054-86.884-146.548-151.697-250.232-179.195l96.421-167.001c6.902-11.96 20.323-18.575 34.010-16.773 13.694 1.802 24.945 11.667 28.515 25.006l34.734 129.611 129.611-34.727c13.332-3.577 27.511 1.236 35.915 12.186 8.404 10.957 9.38 25.894 2.478 37.847l-111.452 193.046zM400.337 154.699c-103.709 27.402-192.247 92.14-250.369 178.956l-111.262-192.711c-6.903-11.953-5.924-26.89 2.481-37.847 8.404-10.95 22.579-15.763 35.914-12.186l129.612 34.727 34.73-129.611c3.573-13.339 14.827-23.204 28.515-25.006s27.113 4.813 34.015 16.773l96.364 166.905z" />
<glyph unicode="&#xe946;" glyph-name="tw" d="M641.377 863.943c-92.447-33.852-150.833-121.093-144.181-216.57l2.217-36.862-36.955 4.544c-134.572 17.267-252.144 75.939-351.978 174.426l-48.837 48.846-12.508-36.067c-26.664-80.425-9.665-165.452 45.824-222.59 29.563-31.58 22.911-36.067-28.086-17.267-17.795 5.964-33.316 10.507-34.794 8.236-5.117-5.225 12.565-73.667 26.607-100.76 19.273-37.6 58.445-74.405 101.313-96.273l36.272-17.265-42.924-0.799c-41.389 0-42.867-0.737-38.433-16.471 14.782-48.957 73.227-100.813 138.267-123.361l45.823-15.79-39.911-24.084c-60.313-34.944-128.487-54.088-198.19-55.66-33.259-0.742-60.605-3.748-60.605-6.021 0-7.501 90.226-49.644 142.702-66.171 157.483-48.845 344.53-27.832 485.069 55.665 99.835 59.407 199.67 177.49 246.231 291.768 25.129 60.944 50.258 172.211 50.258 225.601 0 34.647 2.278 39.134 43.663 80.482 24.392 24.082 47.304 50.38 51.738 57.934 7.393 14.257 6.651 14.257-31.043 1.477-62.822-22.549-71.747-19.538-40.648 14.313 22.912 24.026 50.258 67.646 50.258 80.425 0 2.272-11.085-1.477-23.649-8.236-13.307-7.554-42.87-18.8-65.101-25.559l-39.91-12.78-36.214 24.764c-19.958 13.575-48.097 28.626-62.879 33.113-37.693 10.508-95.401 9.031-129.398-3.010z" />
<glyph unicode="&#xe948;" glyph-name="upload1" d="M770.711 634.816c-7.314 2.086-13.986 5.967-19.413 11.29-5.433 5.323-9.442 11.919-11.674 19.188-12.374 41.955-33.134 80.963-61.025 114.663s-62.324 61.391-101.225 81.397c-38.901 20.007-81.455 31.913-125.090 34.999s-87.44-2.714-128.769-17.047c-41.328-14.333-79.319-36.903-111.672-66.343s-58.398-65.137-76.557-104.933c-18.159-39.796-28.055-82.863-29.090-126.593s6.814-87.217 23.072-127.827c3.735-8.546 4.539-18.088 2.287-27.138s-7.433-17.102-14.737-22.901c-32.186-23.892-57.315-56.034-72.728-93.038-15.412-36.999-20.535-77.479-14.824-117.151 8.911-53.636 36.756-102.298 78.481-137.157 41.725-34.854 94.564-53.598 148.928-52.822h214.919c10.72 0 21.002 4.258 28.582 11.835 7.58 7.583 11.839 17.866 11.839 28.586s-4.259 21.003-11.839 28.58c-7.58 7.583-17.862 11.841-28.582 11.841h-214.919c-34.912-0.846-68.973 10.838-96.010 32.946-27.036 22.102-45.259 53.162-51.365 87.547-3.872 25.277-0.734 51.125 9.073 74.741 9.808 23.611 25.908 44.081 46.546 59.176 21.679 16.201 37.36 39.144 44.582 65.229 7.221 26.083 5.573 53.826-4.686 78.871-20.285 53.57-21.328 112.524-2.951 166.777 14.681 42.5 40.97 80.039 75.89 108.365s77.074 46.306 121.688 51.905c10.348 1.332 20.771 2.008 31.205 2.021 52.267 0.172 103.183-16.59 145.125-47.777s72.655-75.122 87.536-125.225c5.81-19.093 16.282-36.443 30.461-50.484 14.185-14.042 31.636-24.336 50.785-29.954 46.872-13.861 88.387-41.709 118.989-79.816 30.607-38.107 48.839-84.653 52.256-133.406 3.422-48.759-8.133-97.393-33.118-139.399-24.98-42.006-62.205-75.377-106.679-95.647-6.581-3.374-12.083-8.526-15.877-14.87-3.794-6.349-5.729-13.63-5.583-21.024-0.081-6.688 1.525-13.29 4.662-19.197 3.137-5.912 7.707-10.935 13.29-14.616s12.008-5.901 18.669-6.457c6.667-0.555 13.366 0.577 19.483 3.282 167.101 80.319 257.886 291.597 116.413 495.725-38.955 50.812-94.127 86.759-156.349 101.861zM783.107 257.757c7.578 7.583 11.835 17.861 11.835 28.58s-4.258 20.997-11.835 28.575l-64.108 64.108c-22.738 22.733-53.577 35.506-85.73 35.506-32.159 0-62.998-12.773-85.735-35.506l-64.108-64.108c-7.363-7.621-11.437-17.834-11.345-28.429 0.092-10.601 4.343-20.739 11.837-28.23 7.494-7.497 17.632-11.749 28.231-11.841s20.809 3.983 28.432 11.345l52.267 52.267v-306.634c0-10.72 4.258-21.003 11.835-28.58 7.583-7.583 17.861-11.841 28.586-11.841 10.72 0 20.997 4.258 28.58 11.841 7.578 7.578 11.841 17.861 11.841 28.58v306.634l52.262-52.267c7.583-7.578 17.861-11.835 28.58-11.835 10.714 0 20.997 4.258 28.575 11.835z" />
<glyph unicode="&#xe949;" glyph-name="view" d="M966.515 460.342c-1.336 3.009-33.602 74.592-105.335 146.325-95.578 95.581-216.303 146.095-349.18 146.095s-253.6-50.514-349.181-146.095c-71.733-71.734-104.152-143.429-105.333-146.325-1.733-3.896-2.628-8.114-2.628-12.381s0.895-8.485 2.628-12.381c1.333-3.009 33.6-74.552 105.333-146.286 95.581-95.544 216.305-146.057 349.181-146.057s253.601 50.512 349.18 146.057c71.734 71.734 103.999 143.277 105.335 146.286 1.731 3.896 2.628 8.114 2.628 12.381s-0.897 8.485-2.628 12.381zM512 204.19c-117.257 0-219.695 42.628-304.495 126.669-34.795 34.601-64.396 74.055-87.886 117.141 23.483 43.088 53.086 82.546 87.886 117.143 84.8 84.038 187.238 126.667 304.495 126.667s219.697-42.629 304.494-126.667c34.865-34.589 64.532-74.046 88.079-117.143-27.468-51.278-147.124-243.81-392.573-243.81zM512 630.857c-36.166 0-71.519-10.724-101.59-30.817s-53.508-48.651-67.348-82.064c-13.84-33.413-17.461-70.181-10.405-105.65s24.471-68.052 50.044-93.628c25.573-25.571 58.155-42.988 93.626-50.039 35.471-7.056 72.236-3.438 105.652 10.406 33.412 13.839 61.967 37.274 82.061 67.345s30.818 65.424 30.818 101.591c-0.049 48.481-19.334 94.962-53.614 129.244s-80.764 53.563-129.244 53.613zM512 326.095c-24.11 0-47.679 7.148-67.726 20.543s-35.672 32.436-44.899 54.711c-9.227 22.274-11.64 46.787-6.937 70.432 4.704 23.649 16.314 45.37 33.362 62.419s38.77 28.659 62.418 33.362c23.647 4.704 48.159 2.29 70.433-6.937s41.316-24.852 54.711-44.898c13.395-20.047 20.543-43.614 20.543-67.727 0-32.329-12.844-63.337-35.703-86.201-22.864-22.86-53.872-35.703-86.202-35.703z" />
<glyph unicode="&#xe94a;" glyph-name="wallet" d="M875.914 738.014h-693.169c-9.192 0-18.007 3.772-24.507 10.487s-10.151 15.822-10.151 25.317c0 9.496 3.652 18.603 10.151 25.318s15.315 10.487 24.507 10.487h589.194c9.192 0 18.007 3.772 24.505 10.487s10.153 15.822 10.153 25.317c0 9.496-3.655 18.603-10.153 25.318s-15.313 10.487-24.505 10.487h-589.194c-27.576 0-54.022-11.317-73.522-31.46s-30.454-47.465-30.454-75.952v-572.867c0-28.488 10.954-55.811 30.454-75.952s45.945-31.46 73.522-31.46h693.169c18.385 0 36.013 7.546 49.018 20.976 12.997 13.43 20.299 31.642 20.299 50.633v501.258c0 18.991-7.302 37.205-20.299 50.634-13.005 13.429-30.633 20.974-49.018 20.974zM875.914 165.148h-693.169c-9.192 0-18.007 3.773-24.507 10.486-6.499 6.715-10.151 15.822-10.151 25.318v471.586c11.129-4.076 22.851-6.15 34.658-6.131h693.169v-501.258zM667.963 433.678c0 10.622 3.049 21.006 8.762 29.838s13.832 15.715 23.331 19.781c9.5 4.064 19.952 5.129 30.037 3.056s19.348-7.188 26.618-14.698c7.27-7.511 12.222-17.080 14.228-27.498s0.976-21.216-2.959-31.030c-3.935-9.813-10.598-18.201-19.147-24.103s-18.601-9.051-28.883-9.051c-13.788 0-27.012 5.659-36.761 15.73s-15.227 23.732-15.227 37.976z" />
<glyph unicode="&#xe94b;" glyph-name="youtube" d="M1017.277 662.42c0 90-66.196 162.4-147.999 162.4-110.797 5.18-223.8 7.18-339.277 7.18h-36.002c-115.2 0-228.4-2-339.2-7.2-81.6 0-147.8-72.8-147.8-162.8-5-71.18-7.12-142.38-7-213.58-0.2-71.199 2.067-142.464 6.8-213.801 0-89.999 66.2-163 147.8-163 116.4-5.396 235.8-7.798 357.2-7.598 121.601-0.399 240.666 2.135 357.202 7.598 81.797 0 147.999 73.001 147.999 163 4.797 71.404 6.999 142.602 6.799 214.001 0.451 71.2-1.72 142.467-6.523 213.8zM414 252.221v392.998l290-196.4-290-196.599z" />
</font>
</defs>
</svg>
